<svg width="65" height="65" viewBox="0 0 65 65" fill="none" xmlns="http://www.w3.org/2000/svg">
<rect width="65" height="65" fill="#FF4B41"/>
<g clip-path="url(#clip0_117950_129)">
<path d="M13 48.4694H20.3387V37.9992C20.962 38.1442 23.3125 38.1442 23.8867 38.1442C30.1704 38.1442 36.2137 35.0702 36.2137 26.9517C36.2137 17.5381 29.0197 16 22.3041 16C19.0433 16 15.6377 16.3366 13 16.8158V48.4694ZM22.9274 22.3396C25.7564 22.3396 28.5388 23.2513 28.5388 26.8068C28.5388 30.9864 25.565 31.8022 22.5913 31.8022C22.2084 31.8022 20.7216 31.7064 20.3364 31.6105V22.5804C20.913 22.4354 21.87 22.3396 22.925 22.3396" fill="white"/>
<path d="M37.3294 28.5857H40.6393L37.3294 40.6898C36.9466 42.083 36.5615 43.523 36.5615 44.9162C36.5615 47.7985 38.6249 49 41.0712 49C44.332 49 47.6419 47.7026 49.8478 45.4936L49.3202 44.2921C47.9781 45.012 46.5869 45.3487 45.1957 45.3487C43.8045 45.3487 43.1346 44.3388 43.1346 43.3313C43.1346 42.3238 43.4217 41.2672 43.6621 40.3532L46.923 28.5857H52.2473C52.7749 27.8166 53.111 26.5683 52.9663 25.6567H47.6419L49.0331 20.6145L48.1228 20.0862C46.6826 20.2311 43.8068 20.7594 42.4157 21.7202L41.5053 25.1775C39.9227 25.6099 38.6763 26.0891 37.4275 26.7623L37.3318 28.588L37.3294 28.5857Z" fill="white"/>
</g>
<defs>
<clipPath id="clip0_117950_129">
<rect width="40" height="33" fill="white" transform="translate(13 16)"/>
</clipPath>
</defs>
</svg>
