<svg width="20" height="20" viewBox="0 0 20 20" fill="none" xmlns="http://www.w3.org/2000/svg">
<path d="M11.0759 3.20188L9.99166 4.31009L8.89908 3.19355C7.91493 2.21034 6.6055 1.66873 5.21268 1.66873C3.81985 1.66873 2.51043 2.21034 1.52627 3.19355C0.542118 4.17677 0 5.48495 0 6.86812C0 8.25129 0.542118 9.55946 1.52627 10.5343L10 19.1667L18.4737 10.5343C19.4579 9.55113 20 8.24295 20 6.85978C20 5.47661 19.4579 4.16844 18.4737 3.18523C16.4387 1.16047 13.1276 1.16047 11.0842 3.18523L11.0759 3.20188ZM17.2811 9.37615L9.99166 16.8003L2.70225 9.36782C2.03503 8.70124 1.65972 7.80968 1.65972 6.86812C1.65972 5.92657 2.02669 5.03501 2.70225 4.36842C3.36947 3.70183 4.26189 3.3352 5.21268 3.3352C6.16347 3.3352 7.05588 3.70182 7.71476 4.36008L9.99166 6.70146L12.2686 4.36842C13.653 2.99358 15.9049 2.98525 17.2894 4.36842C17.9566 5.03501 18.3319 5.92657 18.3319 6.86812C18.3319 7.80968 17.965 8.6929 17.2894 9.36782L17.2811 9.37615Z" fill="#202020"/>
</svg>
