<svg width="40" height="40" viewBox="0 0 40 40" fill="none" xmlns="http://www.w3.org/2000/svg">
<path d="M26.9952 14.2842C26.746 16.9193 25.6662 23.3236 25.118 26.2755C24.8854 27.5264 24.4203 27.9433 23.9883 27.9934C23.0248 28.0767 22.2939 27.3596 21.3636 26.7425C19.9016 25.7752 19.071 25.1748 17.659 24.2408C16.0143 23.1568 17.0775 22.5564 18.0244 21.5891C18.2736 21.3389 22.5264 17.453 22.6095 17.1027C22.621 17.0497 22.6195 16.9946 22.605 16.9423C22.5905 16.89 22.5635 16.842 22.5264 16.8025C22.4268 16.7192 22.2939 16.7525 22.1776 16.7692C22.0281 16.8025 19.7023 18.3536 15.167 21.4223C14.5025 21.8726 13.9045 22.1061 13.3729 22.0894C12.7748 22.0727 11.6452 21.7558 10.798 21.4723C9.75136 21.1388 8.93735 20.9553 9.0038 20.3716C9.03702 20.0714 9.45234 19.7712 10.2331 19.4543C15.084 17.3362 18.3068 15.9353 19.9183 15.2682C24.5365 13.3336 25.4835 13 26.1147 13C26.2476 13 26.5633 13.0334 26.7626 13.2001C26.9288 13.3336 26.9786 13.517 26.9952 13.6504C26.9786 13.7505 27.0118 14.0507 26.9952 14.2842Z" fill="#F0F0F0"/>
</svg>
