<?xml version="1.0" encoding="utf-8"?>
<svg width="24" height="24" viewBox="0 0 24 24" fill="none" xmlns="http://www.w3.org/2000/svg">
  <path fill-rule="evenodd" clip-rule="evenodd" d="M 0 2 C 0 0.895 0.895 0 2 0 L 22 0 C 23.105 0 24 0.895 24 2 L 24 4 C 24 5.105 23.105 6 22 6 L 2 6 C 0.895 6 0 5.105 0 4 L 0 2 Z M 0 11 C 0 9.895 0.895 9 2 9 L 22 9 C 23.105 9 24 9.895 24 11 L 24 13 C 24 14.105 23.105 15 22 15 L 2 15 C 0.895 15 0 14.105 0 13 L 0 11 Z M 2 18 C 0.895 18 0 18.895 0 20 L 0 22 C 0 23.105 0.895 24 2 24 L 22 24 C 23.105 24 24 23.105 24 22 L 24 20 C 24 18.895 23.105 18 22 18 L 2 18 Z" fill="#202020"/>
</svg>
