<svg width="136" height="96" viewBox="0 0 136 96" fill="none" xmlns="http://www.w3.org/2000/svg">
<path d="M21 67.6888H23.5326C24.7853 67.6888 25.7384 67.4673 26.392 67.0242C27.1 66.5811 27.6447 65.8056 28.0259 64.6979L43.6301 20H51.8814L67.3222 64.6979C67.7034 65.8056 68.2481 66.5811 68.9561 67.0242C69.6642 67.4673 70.6445 67.6888 71.8972 67.6888H74.3481V73.7538H55.7212V67.6888H59.806L56.2114 57.0544H39.2184L35.6238 67.6888H39.7086V73.7538H21V67.6888ZM54.5774 51.8202L47.7966 31.5483L40.8524 51.8202H54.5774Z" fill="#202020"/>
<path d="M89.3472 75C84.99 75 81.6676 74.0307 79.3801 72.0921C77.1471 70.1536 76.0306 67.4119 76.0306 63.8671C76.0306 59.8792 77.256 56.9713 79.7069 55.1435C82.2123 53.2603 85.807 52.1526 90.4909 51.8202L101.928 51.0725V46.0045C101.928 43.4013 101.384 41.5181 100.295 40.355C99.2053 39.1918 97.3535 38.6103 94.7392 38.6103C92.9418 38.6103 91.444 38.7764 90.2458 39.1088C89.1021 39.3857 88.04 39.8565 87.0596 40.5211V43.5121H79.4618V36.9486C84.0369 34.0685 89.1838 32.6284 94.9025 32.6284C105.36 32.6284 110.588 37.3364 110.588 46.7523V64.9471C110.588 66.0549 110.779 66.858 111.16 67.3565C111.596 67.855 112.277 68.1042 113.203 68.1042H115V73.7538H105.605L104.543 68.5196C102.8 70.7905 100.757 72.4522 98.4155 73.5045C96.128 74.5015 93.1052 75 89.3472 75ZM91.3079 69.0181C94.5758 69.0181 97.1628 68.2981 99.0691 66.858C100.975 65.4179 101.928 63.2301 101.928 60.2946V56.3066L91.1445 57.1375C88.4757 57.3036 86.6239 57.8852 85.5891 58.8822C84.5543 59.8238 84.0369 61.3469 84.0369 63.4517C84.0369 65.2795 84.6087 66.6641 85.7525 67.6057C86.8962 68.5473 88.748 69.0181 91.3079 69.0181Z" fill="#202020"/>
</svg>
