<svg width="136" height="96" viewBox="0 0 136 96" fill="none" xmlns="http://www.w3.org/2000/svg">
<path d="M35 83.3955L42.9952 9H58.1953L66.144 83.3955H58.6137L56.7078 62.3788H44.4362L42.5768 83.3955H35ZM45.0869 55.7297H56.1035L54.6625 39.9671L52.6173 15.6491H48.6197L46.5279 40.0136L45.0869 55.7297Z" fill="#202020"/>
<path d="M83.4054 84C79.9656 84 77.3005 83.1011 75.4102 81.3032C73.5199 79.4743 72.4352 76.7154 72.1563 73.0267C72.1254 72.2517 72.0944 71.4922 72.0634 70.7483C72.0324 69.9733 72.0324 69.1984 72.0634 68.4234C72.1873 66.1916 72.5902 64.1922 73.272 62.4253C73.9847 60.6584 75.1158 59.0465 76.6652 57.5896C78.2147 56.1327 80.3529 54.7533 83.08 53.4513C84.5365 52.7384 86.1014 52.0254 87.7748 51.3125C89.4482 50.5995 91.0907 49.9795 92.7021 49.4526V38.3862C92.7021 36.3404 92.2682 34.8679 91.4005 33.969C90.5638 33.0701 89.0454 32.6206 86.8452 32.6206C84.9858 32.6206 83.4983 33.0081 82.3827 33.783C81.2671 34.558 80.6628 35.9374 80.5699 37.9213C80.5079 38.8512 80.4614 39.9206 80.4304 41.1296C80.4304 42.3075 80.4459 43.4389 80.4769 44.5239C80.5079 45.5778 80.5389 46.3993 80.5699 46.9882H73.3184C73.2874 45.6553 73.2565 44.2914 73.2255 42.8965C73.1945 41.5015 73.1945 40.1531 73.2255 38.8512C73.3494 36.1234 73.8762 33.876 74.8059 32.1091C75.7356 30.3422 77.1921 29.0403 79.1754 28.2033C81.1897 27.3354 83.8547 26.9014 87.1705 26.9014C90.4864 26.9014 93.074 27.3509 94.9333 28.2498C96.7926 29.1178 98.0942 30.5127 98.8379 32.4346C99.6126 34.3565 100 36.8363 100 39.8741L99.9535 83.3955H92.5626V78.2343H91.54C90.7343 80.0322 89.7736 81.4426 88.658 82.4656C87.5734 83.4885 85.8225 84 83.4054 84ZM85.3577 78.4203C87.1241 78.4203 88.6115 77.9709 89.8201 77.0719C91.0287 76.173 91.9583 74.871 92.6091 73.1661L92.7021 55.7297C91.4625 56.1017 90.192 56.5821 88.8904 57.1711C87.5889 57.7601 86.1324 58.5505 84.521 59.5425C82.5067 60.6894 81.1742 61.9913 80.5234 63.4482C79.9036 64.8741 79.5627 66.5325 79.5008 68.4234C79.4698 69.2604 79.4543 70.0043 79.4543 70.6553C79.4853 71.3063 79.5162 71.9572 79.5472 72.6082C79.7022 74.4061 80.2755 75.832 81.2671 76.8859C82.2898 77.9089 83.6533 78.4203 85.3577 78.4203Z" fill="#202020"/>
</svg>
