<svg width="136" height="96" viewBox="0 0 136 96" fill="none" xmlns="http://www.w3.org/2000/svg">
<path d="M28.7318 76.0872H17L37.0762 18H52.5259L72.6847 76.0872H60.5398L55.8306 61.9803H33.441L28.7318 76.0872ZM44.5119 28.0408L36.2501 52.4374H52.939L44.6771 28.0408H44.5119Z" fill="#202020"/>
<path d="M89.9184 77C88.0457 77 86.2281 76.7511 84.4656 76.2532C82.7581 75.7553 81.2435 74.9808 79.9216 73.9297C78.5997 72.8786 77.5532 71.5785 76.7821 70.0295C76.011 68.4805 75.6254 66.6549 75.6254 64.5527V64.0549C75.6254 61.3994 76.1211 59.2972 77.1125 57.7482C78.159 56.1992 79.4809 55.0098 81.0782 54.18C82.7306 53.3502 84.5482 52.7693 86.531 52.4374C88.5689 52.0502 90.5518 51.7736 92.4795 51.6076C94.0768 51.4416 95.564 51.2757 96.9409 51.1097C98.373 50.8884 99.6123 50.5842 100.659 50.1969C101.76 49.8097 102.642 49.2841 103.303 48.6203C103.963 47.9011 104.294 46.933 104.294 45.7159V45.301C104.294 44.3605 104.101 43.5584 103.716 42.8945C103.385 42.1753 102.889 41.5945 102.229 41.1519C101.568 40.654 100.741 40.2944 99.7499 40.0731C98.8136 39.8519 97.712 39.7412 96.4452 39.7412C95.2335 39.7412 94.1044 39.8519 93.0579 40.0731C92.0114 40.2944 91.1026 40.6817 90.3315 41.2349C89.5604 41.7881 88.9545 42.5349 88.5139 43.4754C88.0732 44.3605 87.8529 45.4946 87.8529 46.8776V47.3755H77.3604V46.8776C77.3604 44.2775 77.8286 42.0094 78.7649 40.0731C79.7563 38.1369 81.1058 36.5049 82.8132 35.1772C84.5757 33.8495 86.6412 32.8537 89.0096 32.1899C91.433 31.4707 94.0768 31.1111 96.9409 31.1111C99.7499 31.1111 102.284 31.443 104.542 32.1069C106.8 32.7154 108.7 33.7112 110.242 35.0942C111.84 36.4219 113.051 38.1369 113.878 40.2391C114.704 42.3413 115.117 44.9137 115.117 47.9564V65.7975C115.117 67.6231 115.282 69.0061 115.613 69.9466C115.943 70.8317 116.632 71.3019 117.678 71.3572C117.898 71.3572 118.091 71.3572 118.256 71.3572C118.477 71.3019 118.725 71.2466 119 71.1913V76.1702C117.843 76.2255 116.632 76.2532 115.365 76.2532C114.153 76.3085 112.886 76.3361 111.564 76.3361C110.298 76.3361 109.224 76.1702 108.342 75.8383C107.461 75.5063 106.745 75.0361 106.194 74.4276C105.643 73.819 105.258 73.0445 105.038 72.1041C104.817 71.1083 104.707 69.9742 104.707 68.7018C104.046 69.9742 103.22 71.136 102.229 72.1871C101.292 73.1828 100.191 74.0403 98.9238 74.7595C97.712 75.4787 96.3351 76.0319 94.7928 76.4191C93.3057 76.8064 91.6809 77 89.9184 77ZM94.1319 68.7848C95.6741 68.7848 97.0511 68.5635 98.2628 68.121C99.5296 67.6231 100.604 66.9316 101.485 66.0464C102.421 65.1613 103.11 64.0549 103.55 62.7271C104.046 61.3994 104.294 59.8504 104.294 58.0802V54.18C103.908 54.5673 103.44 54.8992 102.889 55.1758C102.339 55.4524 101.733 55.7014 101.072 55.9226C100.411 56.0886 99.6949 56.2546 98.9238 56.4205C98.2077 56.5312 97.4366 56.6418 96.6105 56.7525C95.619 56.9184 94.545 57.0844 93.3883 57.2504C92.2317 57.361 91.1576 57.5823 90.1662 57.9142C89.2299 58.2461 88.4313 58.7993 87.7703 59.5738C87.1644 60.3483 86.8615 61.3994 86.8615 62.7271V63.0591C86.8615 63.9995 87.0267 64.8293 87.3572 65.5485C87.6877 66.2124 88.1559 66.7933 88.7617 67.2911C89.4227 67.789 90.1938 68.1763 91.075 68.4529C91.9563 68.6742 92.9753 68.7848 94.1319 68.7848Z" fill="#202020"/>
</svg>
