<svg width="136" height="96" viewBox="0 0 136 96" fill="none" xmlns="http://www.w3.org/2000/svg">
<path d="M52.4947 5.96121C53.0412 6.21195 53.4636 6.33732 53.7617 6.33732C54.2585 6.28717 54.5815 6.28717 54.7305 6.33732C54.8796 6.33732 55.0287 6.28717 55.1777 6.18688C55.6249 6.28717 55.9727 6.2621 56.2211 6.11166L57.3391 6.2621C57.6372 6.1618 57.985 6.13673 58.3825 6.18688C58.78 6.18688 59.1029 6.2621 59.3514 6.41254C59.8979 6.31224 60.2457 6.28717 60.3948 6.33732C60.5438 6.38746 60.6929 6.36239 60.8419 6.2621C60.9413 6.1618 61.1152 6.13673 61.3636 6.18688C61.6618 6.18688 61.8605 6.23702 61.9599 6.33732C62.5561 6.28717 62.9287 6.23702 63.0778 6.18688C63.2766 6.08658 63.4753 6.03644 63.674 6.03644C64.5187 6.08658 65.0156 6.06151 65.1646 5.96121C65.6615 5.86092 65.9099 5.76063 65.9099 5.66033C65.9099 5.56004 65.9596 5.50989 66.059 5.50989C66.4565 5.50989 66.7297 5.58511 66.8788 5.73555C67.1272 5.63526 67.2763 5.53497 67.326 5.43467C67.4253 5.28423 67.5247 5.10872 67.6241 4.90813C68.0216 4.75769 68.27 4.53203 68.3694 4.23115C68.6178 4.13085 68.7917 4.03056 68.8911 3.93026C69.0401 3.82997 69.2389 3.72968 69.4873 3.62938C69.6861 3.4288 69.8103 3.30343 69.86 3.25328C69.9593 3.20313 70.0587 3.15299 70.1581 3.10284C70.3568 2.90225 70.5556 2.75181 70.7543 2.65152C71.0027 2.50108 71.2015 2.32556 71.3505 2.12498C71.748 1.87424 72.0213 1.7238 72.1704 1.67365C72.3691 1.57336 72.4933 1.44799 72.543 1.29755C73.0399 1.14711 73.338 1.04682 73.4373 0.99667C73.5367 0.896376 73.6858 0.846229 73.8845 0.846229C74.1329 0.595495 74.4559 0.470127 74.8534 0.470127C75.2509 0.169246 75.4745 0.068952 75.5242 0.169246C75.6235 0.219393 75.7726 0.219393 75.9713 0.169246C76.4185 0.0188051 76.7166 -0.0313418 76.8657 0.0188051C77.0644 0.0188051 77.288 0.0188051 77.5364 0.0188051C78.1327 0.119099 78.4805 0.219393 78.5799 0.319687C78.6792 0.570421 78.7289 0.771009 78.7289 0.92145C78.7289 1.07189 78.7538 1.19726 78.8034 1.29755C79.2009 1.59843 79.3997 1.79902 79.3997 1.89931C79.7475 2.55122 80.0456 3.02762 80.294 3.3285C80.0456 3.72968 79.9214 3.95534 79.9214 4.00549C79.9711 4.05563 79.9711 4.13085 79.9214 4.23115C79.3251 4.83291 78.9773 5.35945 78.878 5.81077C78.7786 6.2621 78.6047 6.68834 78.3563 7.08952C78.3563 7.44055 78.3563 7.66621 78.3563 7.7665C78.406 7.8668 78.406 7.99216 78.3563 8.14261C78.3066 8.2429 78.2569 8.36827 78.2072 8.51871C78.1575 8.619 78.1327 8.76944 78.1327 8.97003L78.0582 10.324C77.9588 10.5747 77.8594 10.8756 77.76 11.2266C77.7103 11.5275 77.6607 11.8535 77.611 12.2045C77.5613 12.4051 77.5116 12.6057 77.4619 12.8063C77.4619 13.0069 77.4371 13.2074 77.3874 13.408C77.4371 13.7591 77.4122 14.0098 77.3129 14.1602C77.2135 14.2605 77.1886 14.3608 77.2383 14.4611C77.0893 15.2133 77.0147 15.7399 77.0147 16.0407C77.0644 16.2915 76.9899 16.5422 76.7912 16.7929C76.8905 17.4449 76.8657 17.9213 76.7166 18.2221C76.5676 18.4729 76.5427 18.7236 76.6421 18.9743C76.3937 19.3254 76.3191 19.526 76.4185 19.5761C76.5179 19.6262 76.5427 19.7015 76.493 19.8018C76.344 20.2531 76.2943 20.7295 76.344 21.2309C76.4434 21.6823 76.344 22.1085 76.0459 22.5097C75.9962 22.7604 75.9962 23.0112 76.0459 23.2619C76.1452 23.4625 76.1452 23.6631 76.0459 23.8637L75.6732 25.2929C75.6732 25.5436 75.6732 25.7442 75.6732 25.8946C75.7229 25.9949 75.6981 26.1203 75.5987 26.2707L75.4496 27.3238C75.3503 27.5745 75.3254 27.75 75.3751 27.8503C75.4248 27.9506 75.3503 28.0509 75.1515 28.1512C75.3006 28.3017 75.3503 28.5023 75.3006 28.753C75.2509 29.0037 75.1267 29.1792 74.9279 29.2795C74.9279 29.6807 74.9279 29.9314 74.9279 30.0317C74.9279 30.132 74.8782 30.1822 74.7789 30.1822C74.8782 30.2825 74.8782 30.4078 74.7789 30.5583C74.7292 30.6586 74.7292 30.8341 74.7789 31.0848C74.7789 31.6866 74.7292 31.9875 74.6298 31.9875C74.5304 31.9875 74.5056 32.0376 74.5553 32.1379C74.605 32.6895 74.6547 33.0406 74.7043 33.191C74.754 33.2913 74.7789 33.3916 74.7789 33.4919C74.6298 33.6423 74.5553 33.8178 74.5553 34.0184C74.605 34.1689 74.5801 34.2942 74.4808 34.3945C74.4311 34.9461 74.4311 35.2721 74.4808 35.3724C74.5304 35.4727 74.5304 35.6231 74.4808 35.8237C74.4808 36.5258 74.4062 37.1024 74.2572 37.5538C74.3565 37.7544 74.3565 37.9299 74.2572 38.0803C74.2075 38.2308 74.2323 38.4313 74.3317 38.6821C74.2323 39.4844 74.1329 39.9107 74.0336 39.9608C74.0336 40.4121 73.9839 40.7882 73.8845 41.0891C73.8348 41.5906 73.8348 41.9166 73.8845 42.067C73.9839 42.2174 74.0336 42.3929 74.0336 42.5935C73.9839 43.1452 73.9342 43.4711 73.8845 43.5714C73.8348 43.6717 73.81 43.772 73.81 43.8723C73.7603 43.9726 73.7355 44.123 73.7355 44.3236C73.7355 44.474 73.7355 44.6245 73.7355 44.7749C73.6858 45.3767 73.6609 45.6776 73.6609 45.6776C73.7106 45.6776 73.7355 45.7277 73.7355 45.828C73.6361 46.4298 73.5864 46.8059 73.5864 46.9563C73.5864 47.0566 73.6112 47.1569 73.6609 47.2572C73.7106 47.5581 73.8348 47.884 74.0336 48.2351C73.7355 48.5861 73.6361 48.8619 73.7355 49.0625C73.5864 49.4135 73.5119 49.6392 73.5119 49.7395C73.5616 49.8398 73.5367 49.9401 73.4373 50.0404C73.5367 50.1406 73.5616 50.266 73.5119 50.4165C73.5119 50.5669 73.5119 50.7675 73.5119 51.0182C73.4622 51.6701 73.4125 52.0964 73.3628 52.297C73.3628 52.4976 73.4373 52.6981 73.5864 52.8987C73.4373 53.2999 73.3628 53.7011 73.3628 54.1023C73.4125 54.4533 73.4373 54.8294 73.4373 55.2306C73.487 55.5816 73.4622 55.8323 73.3628 55.9828C73.3131 56.0831 73.3131 56.1833 73.3628 56.2836C73.5119 57.086 73.5616 57.6878 73.5119 58.0889C73.4622 58.4901 73.487 58.9414 73.5864 59.4429C73.6858 59.8942 73.7106 60.145 73.6609 60.1951C73.6112 60.2453 73.6112 60.3205 73.6609 60.4208C73.6609 60.5712 73.6858 60.7216 73.7355 60.8721C73.7851 61.0225 73.8348 61.1479 73.8845 61.2482C73.8845 61.6995 73.9094 61.9502 73.959 62.0004C74.0087 62.0505 74.0336 62.1007 74.0336 62.1508C74.0336 62.4016 74.0336 62.6523 74.0336 62.903C74.0336 63.2039 73.9839 63.4296 73.8845 63.58C73.9839 64.1818 74.0584 64.5077 74.1081 64.5579C74.1578 64.608 74.1826 64.6833 74.1826 64.7835C74.2323 65.3352 74.2572 65.7113 74.2572 65.9118C74.3069 66.1124 74.3317 66.313 74.3317 66.5136C74.282 66.8145 74.3069 67.1154 74.4062 67.4163L74.4808 68.6198C74.6795 69.1714 74.754 69.4723 74.7043 69.5224C74.7043 69.5726 74.754 69.6478 74.8534 69.7481C74.7043 70.0991 74.7043 70.4 74.8534 70.6507C75.0521 70.9516 75.1267 71.3026 75.077 71.7038C75.226 72.2554 75.3006 72.5814 75.3006 72.6817C75.3006 72.8321 75.2509 72.9826 75.1515 73.133C75.3503 73.5342 75.4496 73.7849 75.4496 73.8852C75.4496 74.0357 75.4993 74.1359 75.5987 74.1861C75.6981 74.7377 75.7477 75.0135 75.7477 75.0135C76.0459 75.3645 76.1949 75.5902 76.1949 75.6905C76.1949 75.8409 76.2446 75.9162 76.344 75.9162C76.493 76.4176 76.5676 76.7185 76.5676 76.8188C76.6173 76.9191 76.5924 76.9943 76.493 77.0445C76.6918 77.7465 76.8905 78.248 77.0893 78.5489C77.288 78.8999 77.4371 79.2008 77.5364 79.4515C77.5364 79.953 77.7103 80.2789 78.0582 80.4294C77.9091 80.5798 77.9091 80.7052 78.0582 80.8055C78.2569 80.9559 78.3066 81.1064 78.2072 81.2568C78.406 81.4072 78.5302 81.6078 78.5799 81.8586C78.6295 82.1595 78.6792 82.4603 78.7289 82.7612C78.9277 83.0119 79.1761 83.2376 79.4742 83.4382C79.7226 83.8895 79.7972 84.1152 79.6978 84.1152C79.6481 84.1152 79.6233 84.1653 79.6233 84.2656C79.822 84.5164 79.9711 84.6417 80.0704 84.6417C80.1698 84.6919 80.2443 84.7671 80.294 84.8674C80.5425 85.3187 80.6667 85.5694 80.6667 85.6196C80.7164 85.6697 80.7412 85.745 80.7412 85.8453C80.9896 86.1963 81.1387 86.3969 81.1884 86.447C81.2381 86.5473 81.3126 86.6476 81.412 86.7479C81.7101 87.1992 81.884 87.45 81.9337 87.5001C82.033 87.5502 82.1076 87.6255 82.1572 87.7258C82.5051 88.2774 82.7038 88.5532 82.7535 88.5532C82.8529 88.5532 82.9522 88.5783 83.0516 88.6284C83.3497 89.1299 83.5236 89.4057 83.5733 89.4558C83.6727 89.5561 83.772 89.6564 83.8714 89.7567C84.0702 90.1579 84.2689 90.4086 84.4677 90.5089C84.7161 90.7597 84.9894 90.885 85.2875 90.885C85.4862 91.0856 85.6353 91.211 85.7346 91.2611C85.834 91.3614 85.9831 91.3865 86.1818 91.3363C86.3309 91.5871 86.629 91.8127 87.0762 92.0133C87.3743 92.3643 87.5979 92.5649 87.7469 92.6151C87.9457 92.7154 88.1444 92.8157 88.3432 92.916C88.8897 92.916 89.163 92.941 89.163 92.9912C89.2127 93.0413 89.2624 93.0915 89.312 93.1416C89.5605 93.1918 89.7592 93.1918 89.9083 93.1416C90.107 93.1416 90.3058 93.1667 90.5045 93.2169C90.6536 93.267 90.7778 93.3171 90.8772 93.3673C90.9765 93.4676 91.1256 93.4927 91.3243 93.4425H92.6658C92.8646 93.4927 93.0136 93.4676 93.113 93.3673C93.2621 93.3171 93.3863 93.2921 93.4857 93.2921C93.8832 93.2419 94.1564 93.2419 94.3055 93.2921C94.4545 93.3422 94.6036 93.3171 94.7527 93.2169C95.1005 92.916 95.3986 92.7404 95.647 92.6903C95.8954 92.6402 96.119 92.5649 96.3178 92.4646C96.6656 92.4145 96.8892 92.3142 96.9885 92.1638C97.0879 92.0635 97.2121 92.0635 97.3612 92.1638C97.5599 91.4116 97.7338 90.9853 97.8829 90.885C98.0816 90.7847 98.2307 90.6594 98.3301 90.5089C98.4791 90.5089 98.6033 90.534 98.7027 90.5841C98.8518 90.6844 99.0008 90.7346 99.1499 90.7346C99.1002 91.236 99.0257 91.5118 98.9263 91.562C98.8269 91.6121 98.7772 91.7375 98.7772 91.9381C98.2307 91.9381 97.9574 91.9883 97.9574 92.0885C97.9574 92.239 97.9574 92.3643 97.9574 92.4646C97.4605 92.7154 97.1873 92.8407 97.1376 92.8407C97.0879 92.8909 97.0134 92.916 96.914 92.916C96.8146 93.2169 96.6904 93.3924 96.5414 93.4425C96.3923 93.5428 96.2681 93.5177 96.1687 93.3673C96.0693 93.4676 95.9451 93.5679 95.7961 93.6682C95.647 93.7685 95.5476 93.9189 95.498 94.1195C95.2495 94.2198 95.0259 94.3452 94.8272 94.4956C94.6284 94.6962 94.4049 94.7463 94.1564 94.646C94.0074 94.7463 93.8335 94.8466 93.6347 94.9469C93.4857 95.0472 93.2621 95.0974 92.964 95.0974C92.3677 95.1976 92.0199 95.2729 91.9206 95.323C91.8212 95.4233 91.7218 95.5236 91.6224 95.6239C91.0759 95.5738 90.7778 95.5738 90.7281 95.6239C90.7281 95.674 90.6784 95.7242 90.579 95.7743C90.3306 95.7242 90.107 95.7242 89.9083 95.7743C89.7592 95.8245 89.5853 95.8997 89.3866 96C89.1878 95.8997 89.0388 95.8245 88.9394 95.7743C88.8897 95.7743 88.691 95.7994 88.3432 95.8496C87.7966 95.6991 87.5233 95.674 87.5233 95.7743C86.7781 95.674 86.3806 95.649 86.3309 95.6991C85.685 95.7493 85.3372 95.7994 85.2875 95.8496C85.2875 95.9499 85.2129 95.9749 85.0639 95.9248C84.8651 95.8245 84.6415 95.7242 84.3931 95.6239C84.1447 95.5738 83.9211 95.4735 83.7224 95.323C83.3249 95.323 83.1013 95.2979 83.0516 95.2478C83.0516 95.1976 83.0019 95.1726 82.9025 95.1726C82.5547 95.0221 82.3063 94.8968 82.1572 94.7965C82.0082 94.7463 81.884 94.6711 81.7846 94.5708C81.2877 94.4705 80.9896 94.3953 80.8903 94.3452C80.4928 93.9941 80.1946 93.7685 79.9959 93.6682C79.499 93.3171 79.2258 93.0915 79.1761 92.9912C79.1264 92.941 79.0022 92.916 78.8034 92.916C78.7538 92.6652 78.6295 92.4646 78.4308 92.3142C78.2817 92.2139 78.1575 92.0635 78.0582 91.8629C77.7103 91.2611 77.4371 90.9101 77.2383 90.8098C77.139 90.5089 76.9899 90.2582 76.7912 90.0576C76.6421 89.857 76.5179 89.6313 76.4185 89.3806C76.0707 88.9794 75.8471 88.6284 75.7477 88.3275C75.6981 88.0768 75.549 87.8762 75.3006 87.7258C75.2012 87.2744 75.0025 86.8733 74.7043 86.5222C74.4559 86.2214 74.282 85.7951 74.1826 85.2435C73.8348 84.8423 73.6609 84.5414 73.6609 84.3408C73.3628 83.8895 73.1889 83.5886 73.1392 83.4382C73.1392 83.3379 73.0895 83.2376 72.9902 83.1373C72.9405 82.6358 72.8908 82.2848 72.8411 82.0842C72.8411 81.8836 72.8163 81.7081 72.7666 81.5577C72.3691 81.0061 72.0958 80.5798 71.9468 80.2789C71.7977 80.0282 71.6983 79.6521 71.6486 79.1506C71.3505 78.4486 71.1766 77.922 71.1269 77.571C71.1269 77.2701 71.0276 76.9943 70.8288 76.7436C70.6301 76.1418 70.5307 75.7156 70.5307 75.4648C70.5804 75.2141 70.5556 74.9884 70.4562 74.7879C70.3071 74.3867 70.2326 74.0858 70.2326 73.8852C70.2326 73.7348 70.1829 73.5593 70.0835 73.3587C69.9842 72.6566 69.9345 72.1551 69.9345 71.8543C69.9345 71.6035 69.86 71.4029 69.7109 71.2525C69.8103 70.9516 69.7854 70.6257 69.6364 70.2746C69.4873 69.9236 69.537 69.6227 69.7854 69.372C69.5867 68.9207 69.4625 68.6198 69.4128 68.4693C69.3631 68.3189 69.3382 68.1183 69.3382 67.8676C69.2886 67.4664 69.2637 67.2157 69.2637 67.1154C69.3134 67.0151 69.3382 66.9148 69.3382 66.8145C69.2886 66.6139 69.2389 66.4133 69.1892 66.2127C69.1395 66.0121 69.1147 65.8116 69.1147 65.611C68.9656 65.0594 68.8911 64.608 68.8911 64.257C68.9408 63.9561 68.9656 63.7305 68.9656 63.58C68.8165 62.878 68.7917 62.3263 68.8911 61.9252C68.9408 61.4237 68.9408 61.173 68.8911 61.173C68.8414 61.173 68.8414 61.1228 68.8911 61.0225C68.8414 60.3706 68.8165 59.9444 68.8165 59.7438C68.8662 59.5933 68.8414 59.4178 68.742 59.2172C68.6923 59.0167 68.6675 58.8662 68.6675 58.7659C68.6178 58.5152 68.6178 58.2644 68.6675 58.0137C68.7669 57.8131 68.8165 57.6125 68.8165 57.4119C68.6675 56.8603 68.6178 56.5595 68.6675 56.5093C68.7172 56.409 68.742 56.3087 68.742 56.2084C68.742 55.9075 68.7172 55.6067 68.6675 55.3058C68.6178 54.9548 68.593 54.6037 68.593 54.2527C68.593 53.8014 68.6178 53.325 68.6675 52.8235C68.7669 52.322 68.7917 51.8206 68.742 51.3191C68.3445 51.3191 68.0713 51.294 67.9222 51.2439C67.8228 51.1937 67.6738 51.1687 67.475 51.1687C67.0775 51.1687 66.8291 51.1937 66.7297 51.2439C66.68 51.2439 66.6055 51.2439 66.5061 51.2439C66.3571 51.1937 66.1583 51.1436 65.9099 51.0934C65.7112 50.9931 65.5124 50.9681 65.3137 51.0182C64.5684 51.1687 63.9473 51.2188 63.4505 51.1687C63.0033 51.1185 62.5561 51.1436 62.1089 51.2439C61.9599 51.2439 61.786 51.269 61.5872 51.3191C61.4382 51.3692 61.2891 51.3943 61.14 51.3943C60.991 51.4445 60.8419 51.4445 60.6929 51.3943C60.5438 51.3442 60.4196 51.3191 60.3202 51.3191C59.8234 51.3692 59.4756 51.3943 59.2768 51.3943C59.0781 51.3442 58.9042 51.3191 58.7551 51.3191C57.9105 51.3692 57.3142 51.4445 56.9664 51.5448C56.6186 51.6451 56.3205 51.6451 56.0721 51.5448C55.6249 51.5949 55.3516 51.62 55.2523 51.62C55.1529 51.62 55.0535 51.5949 54.9541 51.5448C54.8051 51.5949 54.6312 51.6451 54.4324 51.6952C54.2834 51.7453 54.1343 51.7955 53.9853 51.8456C53.6871 52.1967 53.4636 52.4474 53.3145 52.5978C53.4139 52.6981 53.4139 52.8486 53.3145 53.0492C53.2648 53.2498 53.1903 53.4002 53.0909 53.5005C53.1903 53.7011 53.1903 53.9017 53.0909 54.1023C53.0412 54.2527 53.0661 54.4533 53.1654 54.704C52.8673 55.055 52.7183 55.3309 52.7183 55.5314C52.5195 55.5816 52.3953 55.6819 52.3456 55.8323C52.3456 55.9828 52.2711 56.0831 52.122 56.1332C52.122 56.3839 52.0972 56.6096 52.0475 56.8102C51.9978 56.9606 51.9233 57.1111 51.8239 57.2615C51.7245 57.8633 51.65 58.2143 51.6003 58.3146C51.5506 58.465 51.4264 58.5904 51.2277 58.6907C51.178 59.1922 51.0786 59.5181 50.9296 59.6686C50.9296 60.1199 50.8799 60.3706 50.7805 60.4208C50.7308 60.5211 50.706 60.6214 50.706 60.7216C50.706 61.2231 50.5569 61.5491 50.2588 61.6995C50.2091 62.0004 50.1097 62.2511 49.9607 62.4517C49.8613 62.7024 49.7371 62.9532 49.588 63.2039L49.2154 64.257C49.0663 64.3072 48.967 64.4074 48.9173 64.5579C48.8676 64.7083 48.7682 64.8086 48.6192 64.8588C48.4701 65.4104 48.3956 65.7363 48.3956 65.8366C48.4453 65.9369 48.4453 66.0623 48.3956 66.2127C47.849 66.5136 47.6006 66.6891 47.6503 66.7393C47.7 66.8396 47.7 66.9399 47.6503 67.0402C47.3522 67.2909 47.228 67.4664 47.2776 67.5667C47.377 67.667 47.4019 67.7924 47.3522 67.9428C46.9547 68.3941 46.6566 68.6198 46.4578 68.6198C46.4081 69.1714 46.3088 69.4723 46.1597 69.5224C46.0603 69.5726 45.961 69.6478 45.8616 69.7481C45.9113 69.9988 45.8367 70.1493 45.638 70.1994C45.4889 70.2496 45.4641 70.3749 45.5635 70.5755C45.1163 71.1271 44.7188 71.4531 44.371 71.5534C43.9735 72.0047 43.7996 72.2304 43.8493 72.2304C43.7499 72.431 43.6506 72.5814 43.5512 72.6817C43.5015 72.782 43.427 72.9073 43.3276 73.0578C43.0792 73.459 42.9053 73.6846 42.8059 73.7348C42.7065 73.7849 42.632 73.8601 42.5823 73.9604C42.2345 74.4619 41.9115 74.7377 41.6134 74.7879C41.2656 75.2392 41.0172 75.515 40.8681 75.6153C40.7688 75.7657 40.6942 75.8911 40.6446 75.9914C40.3464 75.9914 40.1477 76.0666 40.0483 76.217C39.9986 76.3675 39.9241 76.5179 39.8247 76.6684C39.7254 76.7687 39.626 76.8689 39.5266 76.9692C39.4272 77.0695 39.3527 77.1949 39.303 77.3453C38.6571 77.7465 38.1106 78.0223 37.6634 78.1728C37.2659 78.3734 36.9678 78.6742 36.769 79.0754C36.2722 79.276 36.0238 79.4014 36.0238 79.4515C36.0734 79.5518 36.0734 79.627 36.0238 79.6772C35.6759 79.627 35.4524 79.6772 35.353 79.8276C35.2536 80.0282 35.0797 80.1536 34.8313 80.2037C34.1854 80.5046 33.7879 80.7052 33.6388 80.8055C33.4898 80.9058 33.3159 81.0061 33.1171 81.1064C32.7693 81.1565 32.496 81.2067 32.2973 81.2568C32.0489 81.3571 31.875 81.4825 31.7756 81.6329C31.3284 81.5326 31.08 81.5075 31.0303 81.5577C30.9806 81.658 30.9061 81.658 30.8067 81.5577C30.3099 81.5577 30.0614 81.5326 30.0614 81.4825C30.0614 81.4323 30.0117 81.4072 29.9124 81.4072C29.2664 81.4574 28.6454 81.4072 28.0491 81.2568C27.6517 81.307 27.3287 81.307 27.0803 81.2568C26.8318 81.2067 26.7076 81.0562 26.7076 80.8055C26.4095 80.7553 26.1611 80.7303 25.9623 80.7303C25.7139 80.7804 25.4655 80.7553 25.217 80.655C25.1177 80.6049 25.0183 80.5297 24.9189 80.4294C24.8195 80.3291 24.6456 80.304 24.3972 80.3542C24.0991 80.1034 23.9004 79.9028 23.801 79.7524C23.6519 79.6521 23.4532 79.627 23.2048 79.6772C23.006 79.276 22.7824 79.0503 22.534 79.0002L22.0123 78.0975C21.6148 77.5961 21.4161 77.3203 21.4161 77.2701C21.4161 77.22 21.3664 77.1197 21.267 76.9692C21.1179 76.7185 21.0434 76.5179 21.0434 76.3675C21.0434 76.2672 20.9689 76.217 20.8198 76.217C20.8198 75.866 20.795 75.6654 20.7453 75.6153C20.6459 75.5651 20.5714 75.4899 20.5217 75.3896C20.472 74.8881 20.3975 74.5873 20.2981 74.487C20.2981 73.9855 20.2236 73.6846 20.0745 73.5843C20.1739 73.3837 20.2484 73.1581 20.2981 72.9073C20.2981 72.6566 20.1987 72.456 20 72.3056C20.1987 71.8041 20.2981 71.5534 20.2981 71.5534C20.2484 71.5534 20.2236 71.5283 20.2236 71.4782C20.2733 71.0268 20.3478 70.7009 20.4472 70.5003C20.3478 70.3499 20.3478 70.1743 20.4472 69.9738C20.4969 69.8233 20.5714 69.6979 20.6708 69.5976C20.6211 69.2466 20.6708 68.9959 20.8198 68.8454C20.9192 68.695 20.9689 68.4443 20.9689 68.0932C21.1676 67.8425 21.2918 67.6168 21.3415 67.4163C21.3912 67.2157 21.4657 66.99 21.5651 66.7393C21.9129 66.288 22.1613 65.962 22.3104 65.7614C22.4595 65.5608 22.5837 65.3352 22.683 65.0844C23.0805 64.5328 23.3787 64.2069 23.5774 64.1066C23.7761 64.0063 23.9004 63.8308 23.95 63.58C24.1985 63.4797 24.3972 63.3042 24.5463 63.0535C24.6953 62.8529 24.8941 62.7024 25.1425 62.6022C25.4406 62.3514 25.6891 62.1258 25.8878 61.9252C26.0369 61.7246 26.2356 61.524 26.484 61.3234C26.7325 61.173 26.8815 61.0727 26.9312 61.0225C26.9809 60.9724 27.0803 60.8972 27.2293 60.7969C27.6268 60.5963 27.9249 60.4458 28.1237 60.3455C28.3224 60.2954 28.5212 60.2202 28.7199 60.1199C29.2664 59.7187 29.5894 59.493 29.6888 59.4429C29.7882 59.3928 29.9124 59.3677 30.0614 59.3677C30.5086 59.1169 30.757 58.9916 30.8067 58.9916C31.1545 58.9916 31.3781 58.9665 31.4775 58.9164C31.5272 58.9164 31.6017 58.9164 31.7011 58.9164C32.1482 58.9164 32.3967 58.9164 32.4464 58.9164C32.4464 58.9665 32.496 58.9916 32.5954 58.9916C33.2413 59.0417 33.7133 59.1169 34.0115 59.2172C34.8064 59.4178 35.2785 59.5933 35.4275 59.7438C35.5766 59.8942 35.7753 59.9945 36.0238 60.0447C36.2722 60.496 36.5206 60.7467 36.769 60.7969C36.8187 61.0476 37.0175 61.2482 37.3653 61.3986C37.4646 61.85 37.564 62.0505 37.6634 62.0004C37.7628 62.0004 37.8373 62.0255 37.887 62.0756C38.2348 62.5269 38.4087 62.8529 38.4087 63.0535C38.4584 63.2541 38.5329 63.4296 38.6323 63.58C38.4832 64.1316 38.4335 64.4576 38.4832 64.5579C38.5826 64.7083 38.6323 64.8337 38.6323 64.934C38.682 65.1847 38.6571 65.4355 38.5577 65.6862C38.4584 65.9369 38.4087 66.2378 38.4087 66.5888C37.9615 66.9399 37.7131 67.1404 37.6634 67.1906C37.6137 67.2909 37.5392 67.3661 37.4398 67.4163C37.2907 67.8174 37.1417 68.018 36.9926 68.018C36.8933 68.018 36.7939 68.0431 36.6945 68.0932C36.297 68.5947 36.0486 68.8956 35.9492 68.9959C35.8498 69.0962 35.7008 69.1463 35.502 69.1463C35.2536 68.5446 35.1542 68.0932 35.2039 67.7924C35.3033 67.5416 35.353 67.2909 35.353 67.0402C35.3033 66.7393 35.2039 66.4384 35.0549 66.1375C34.9058 65.8868 34.7816 65.636 34.6822 65.3853C34.4338 65.1346 34.1854 64.9089 33.9369 64.7083C33.6885 64.5077 33.5146 64.2319 33.4152 63.8809C32.819 63.7305 32.496 63.6302 32.4464 63.58C32.3967 63.5299 32.3221 63.4797 32.2228 63.4296C31.7756 63.4296 31.4278 63.3794 31.1794 63.2791C30.8812 63.1788 30.608 63.0535 30.3595 62.903C30.1111 62.9532 29.9124 62.9783 29.7633 62.9783C29.5646 62.9783 29.3658 62.9783 29.1671 62.9783C28.7199 63.0284 28.4466 63.0786 28.3473 63.1287C28.2479 63.1788 28.0988 63.1788 27.9001 63.1287C27.5026 63.5299 27.1796 63.7806 26.9312 63.8809C26.6331 64.2319 26.4592 64.5077 26.4095 64.7083C26.3598 64.9089 26.2356 65.0594 26.0369 65.1596C25.8878 65.6611 25.7636 65.9871 25.6642 66.1375C25.5152 66.3381 25.3909 66.5136 25.2916 66.6641C25.1922 67.0652 25.1673 67.3661 25.217 67.5667C25.217 67.8174 25.1177 67.993 24.9189 68.0932C25.1177 68.2437 25.1922 68.3941 25.1425 68.5446C25.0928 68.695 25.068 68.8705 25.068 69.0711C25.068 69.3218 25.0928 69.5224 25.1425 69.6729C25.1922 69.8233 25.0928 69.9487 24.8444 70.049C24.9934 70.3499 25.0928 70.5755 25.1425 70.726C25.1922 70.9265 25.217 71.1021 25.217 71.2525C25.0183 71.8041 24.9189 72.1802 24.9189 72.3808C24.8692 72.5814 24.7947 72.7318 24.6953 72.8321C25.0431 73.1832 25.1922 73.3837 25.1425 73.4339C25.0928 73.5342 25.068 73.6345 25.068 73.7348C25.5152 73.8852 25.7387 74.0858 25.7387 74.3365C25.9872 74.5371 26.1362 74.6374 26.1859 74.6374C26.2356 74.6876 26.3598 74.6876 26.5586 74.6374C26.6579 75.1389 26.7821 75.3896 26.9312 75.3896C27.0306 75.4398 27.0803 75.5651 27.0803 75.7657C27.6268 75.866 27.9746 76.0165 28.1237 76.217C28.2727 76.4176 28.4715 76.5681 28.7199 76.6684C29.1671 76.9191 29.4155 77.0194 29.4652 76.9692C29.5149 76.9692 29.5894 76.9943 29.6888 77.0445C30.2353 77.1949 30.5831 77.2451 30.7322 77.1949C30.8316 77.1949 30.9309 77.22 31.0303 77.2701C31.4775 77.3704 31.8004 77.3955 31.9992 77.3453C32.1482 77.2952 32.3221 77.3203 32.5209 77.4206C33.1171 77.4206 33.5643 77.3704 33.8624 77.2701C34.1605 77.1698 34.5332 77.1197 34.9803 77.1197C35.0797 77.0194 35.2288 76.9191 35.4275 76.8188C35.6759 76.7687 35.8498 76.6684 35.9492 76.5179C36.5951 76.2672 37.0423 76.0666 37.2907 75.9162C37.5392 75.8159 37.7379 75.6153 37.887 75.3144C38.1354 75.1138 38.3093 74.9884 38.4087 74.9383C38.5081 74.9383 38.5329 74.8631 38.4832 74.7126C38.7316 74.6625 38.9055 74.5622 39.0049 74.4118C39.154 74.2613 39.3527 74.1359 39.6011 74.0357C39.7999 73.7348 39.9489 73.5342 40.0483 73.4339C40.1477 73.3837 40.2471 73.3336 40.3464 73.2834C40.3464 73.0327 40.421 72.8572 40.57 72.7569C40.7688 72.6566 40.8681 72.456 40.8681 72.1551C41.2656 72.0548 41.5141 71.8292 41.6134 71.4782C41.7625 71.1773 41.9861 70.9767 42.2842 70.8764C42.4829 70.5755 42.6072 70.3248 42.6568 70.1242C42.7562 69.9738 42.8804 69.8233 43.0295 69.6729C43.3276 69.3218 43.4767 69.0711 43.4767 68.9207C43.4767 68.7702 43.5512 68.6449 43.7002 68.5446C43.9487 68.1935 44.0977 67.9428 44.1474 67.7924C44.1971 67.6419 44.2965 67.5166 44.4455 67.4163C44.4455 67.0151 44.5698 66.7142 44.8182 66.5136C45.0666 66.3632 45.166 66.0372 45.1163 65.5358C45.4144 65.1847 45.6132 64.7585 45.7125 64.257C45.8616 63.7555 46.0852 63.3042 46.3833 62.903C46.582 62.3013 46.7311 61.8249 46.8305 61.4739C46.9795 61.173 47.0292 60.847 46.9795 60.496C47.228 60.0948 47.4019 59.8441 47.5012 59.7438C47.6503 59.6936 47.7 59.5432 47.6503 59.2925C47.8987 59.142 48.0229 58.8913 48.0229 58.5403C48.0726 58.2394 48.1968 57.9636 48.3956 57.7128C48.5943 57.3618 48.6937 57.0358 48.6937 56.735C48.6937 56.4341 48.7682 56.2084 48.9173 56.058C49.0663 55.5565 49.2154 55.1052 49.3645 54.704C49.4141 54.5536 49.439 54.4282 49.439 54.3279C49.439 54.2276 49.4638 54.0521 49.5135 53.8014C49.7123 53.4002 49.7868 53.1745 49.7371 53.1244C49.7371 53.0241 49.7371 52.9238 49.7371 52.8235C49.7868 52.7232 49.8613 52.5978 49.9607 52.4474C50.0601 52.297 50.1097 52.1716 50.1097 52.0713C50.1594 51.8707 50.1346 51.6701 50.0352 51.4695C49.9855 51.269 49.9855 51.0684 50.0352 50.8678C50.1346 50.617 50.3085 50.3914 50.5569 50.1908C50.855 49.9902 50.9047 49.7144 50.706 49.3634C50.9544 48.7616 51.1035 48.3855 51.1532 48.2351C51.2525 48.0846 51.2525 47.9342 51.1532 47.7837C51.3022 47.3324 51.3519 47.0566 51.3022 46.9563C51.3022 46.856 51.3271 46.7557 51.3767 46.6554C51.6252 46.1038 51.7245 45.7026 51.6749 45.4519C51.6749 45.2012 51.7245 44.9504 51.8239 44.6997L52.122 43.8723C52.2711 43.1702 52.3208 42.7189 52.2711 42.5183C52.2711 42.2676 52.3456 42.067 52.4947 41.9166C52.3456 41.4652 52.3456 41.0891 52.4947 40.7882C52.6934 40.4372 52.7928 40.036 52.7928 39.5847C52.8922 39.0833 52.9419 38.7824 52.9419 38.6821C52.9915 38.5818 53.0661 38.4815 53.1654 38.3812C53.2648 38.1305 53.3145 37.9549 53.3145 37.8547C53.3145 37.7544 53.3393 37.6541 53.389 37.5538C53.4387 37.1526 53.4884 36.952 53.5381 36.952C53.6375 36.9019 53.6871 36.8266 53.6871 36.7263C53.7368 36.2249 53.8114 35.8738 53.9107 35.6733C54.0101 35.4727 54.0598 35.2721 54.0598 35.0715C54.1592 34.4697 54.2088 34.0435 54.2088 33.7928C54.507 33.1408 54.6312 32.6895 54.5815 32.4388C54.5815 32.1379 54.7057 31.8872 54.9541 31.6866C55.1032 31.135 55.1777 30.8592 55.1777 30.8592C55.2771 30.458 55.3268 30.1822 55.3268 30.0317C55.5255 29.5303 55.6249 29.1542 55.6249 28.9034C55.6249 28.6025 55.7243 28.3267 55.923 28.076C55.8733 27.6748 55.923 27.3489 56.0721 27.0981C56.2211 26.7973 56.2708 26.5465 56.2211 26.3459C56.4199 25.8946 56.5441 25.6188 56.5938 25.5185C56.6435 25.1675 56.6931 24.992 56.7428 24.992C56.8422 24.9418 56.9167 24.8666 56.9664 24.7663C57.0161 24.5156 57.041 24.2648 57.041 24.0141C57.0906 23.7634 57.19 23.5377 57.3391 23.3371C57.4384 22.7354 57.4881 22.4345 57.4881 22.4345C57.6372 21.9832 57.7366 21.6572 57.7862 21.4566C57.8359 21.2059 57.9601 21.0053 58.1589 20.8548C58.1092 20.4035 58.1837 20.0525 58.3825 19.8018C58.6309 19.551 58.7551 19.2251 58.7551 18.8239C58.9539 18.3726 59.0284 18.1469 58.9787 18.1469C58.929 18.0968 58.9042 17.9965 58.9042 17.846C59.1526 17.7457 59.2768 17.6204 59.2768 17.4699C59.3265 17.3195 59.4507 17.1941 59.6495 17.0938C59.7985 16.7428 59.8731 16.5422 59.8731 16.4921C59.9227 16.3918 60.0221 16.3416 60.1712 16.3416C60.3699 15.7399 60.4941 15.4139 60.5438 15.3638C60.8419 14.9626 60.9661 14.7369 60.9165 14.6868C60.8668 14.5865 60.8916 14.4862 60.991 14.3859L61.4382 13.4833C61.6369 13.3328 61.7611 13.1322 61.8108 12.8815C61.9102 12.6308 62.0592 12.4302 62.258 12.2797C62.3077 11.9788 62.5064 11.6529 62.8542 11.3019C63.1523 11.001 63.3014 10.8004 63.3014 10.7001C63.3511 10.5998 63.4008 10.5246 63.4505 10.4744C63.6989 10.1234 63.8231 9.94789 63.8231 9.94789C63.8728 9.94789 63.9225 9.89775 63.9722 9.79745C64.1212 9.64701 64.2206 9.52165 64.2703 9.42135C64.32 9.32106 64.4193 9.24584 64.5684 9.19569C64.0218 8.79452 63.5747 8.619 63.2269 8.66915C62.9287 8.66915 62.6306 8.71929 62.3325 8.81959C62.2331 8.81959 62.0841 8.84466 61.8853 8.89481C61.7363 8.94496 61.5375 8.9951 61.2891 9.04525C60.7426 9.04525 60.4693 9.04525 60.4693 9.04525C59.9227 9.14554 59.6246 9.19569 59.5749 9.19569C59.0284 9.24584 58.7303 9.27091 58.6806 9.27091C58.6309 9.22076 58.5564 9.19569 58.457 9.19569L56.2957 9.27091C55.9975 9.27091 55.7243 9.27091 55.4758 9.27091C55.2274 9.27091 54.9293 9.24584 54.5815 9.19569C54.3827 9.19569 54.184 9.17062 53.9853 9.12047C53.8362 9.07032 53.6623 9.04525 53.4636 9.04525C52.8673 9.29598 52.3953 9.39628 52.0475 9.34613C51.7494 9.29598 51.4513 9.27091 51.1532 9.27091C51.0041 9.27091 50.8054 9.29598 50.5569 9.34613C50.3582 9.39628 50.1594 9.34613 49.9607 9.19569C49.4638 9.39628 49.0167 9.39628 48.6192 9.19569C48.3707 9.39628 48.0975 9.4715 47.7993 9.42135C47.5012 9.32106 47.1783 9.34613 46.8305 9.49657C45.9361 9.59687 44.9921 9.64701 43.9984 9.64701C43.5015 9.79745 43.1289 9.87267 42.8804 9.87267C42.6817 9.87267 42.4581 9.89775 42.2097 9.94789C41.9612 10.0983 41.7625 10.1736 41.6134 10.1736C41.4644 10.1234 41.3153 10.1234 41.1663 10.1736C40.6197 10.324 40.2471 10.3992 40.0483 10.3992C39.8496 10.3992 39.7005 10.4494 39.6011 10.5497C39.4521 10.65 39.303 10.7252 39.154 10.7753C39.0049 10.8255 38.8062 10.9007 38.5577 11.001L37.2162 11.3019C36.5703 11.7532 36.1231 12.0039 35.8747 12.0541C35.6759 12.3048 35.502 12.4302 35.353 12.4302C35.2039 12.4302 35.0797 12.4552 34.9803 12.5054C34.5829 12.7561 34.3593 12.9066 34.3096 12.9567C34.3096 13.0069 34.2599 13.0821 34.1605 13.1824C33.763 13.2827 33.5394 13.408 33.4898 13.5585C33.4401 13.7089 33.3159 13.7841 33.1171 13.7841C33.0674 14.3859 32.9432 14.7369 32.7445 14.8372C32.496 15.439 32.3221 15.79 32.2228 15.8903C32.0737 15.9405 31.9495 16.0157 31.8501 16.116C31.8998 16.7177 31.875 17.0437 31.7756 17.0938C31.6762 17.144 31.5768 17.2192 31.4775 17.3195C30.8812 17.9213 30.5831 18.4729 30.5831 18.9743C30.5334 19.4758 30.4589 19.9773 30.3595 20.4787C30.2602 21.0304 30.1856 21.3814 30.136 21.5318C30.0366 21.6823 30.0366 21.8578 30.136 22.0584C30.0863 22.9109 30.1608 23.5377 30.3595 23.9389C30.5583 24.4905 30.6825 24.7914 30.7322 24.8415C30.7819 24.8415 30.8067 24.8917 30.8067 24.992C30.9061 25.1424 30.9558 25.3179 30.9558 25.5185C30.9061 25.669 30.9061 25.7943 30.9558 25.8946C31.0551 26.1453 31.2042 26.3459 31.4029 26.4964C31.552 26.6468 31.7011 26.7973 31.8501 26.9477C31.9495 27.3489 32.0737 27.6247 32.2228 27.7751C32.3221 27.8754 32.496 27.9005 32.7445 27.8503C32.7445 28.1512 32.8935 28.3267 33.1916 28.3769C33.5394 28.3769 33.7133 28.5273 33.7133 28.8282C33.9121 28.8282 34.086 28.9285 34.2351 29.1291C34.3841 29.2795 34.5829 29.3798 34.8313 29.43L35.7256 29.6556C35.9741 29.7559 36.1231 29.8562 36.1728 29.9565C36.2722 30.0067 36.4461 29.9816 36.6945 29.8813C37.0423 30.1822 37.2907 30.2323 37.4398 30.0317C37.6385 29.8311 37.8621 29.7309 38.1106 29.7309C38.4584 29.9314 38.8062 30.0819 39.154 30.1822C39.5018 30.2323 39.6757 30.3326 39.6757 30.4831C39.0794 30.8341 38.6571 31.0848 38.4087 31.2353C38.1603 31.3857 37.9118 31.5111 37.6634 31.6114C37.2659 31.5612 37.0423 31.5612 36.9926 31.6114C36.9429 31.6615 36.8684 31.7117 36.769 31.7618C36.4709 31.7618 36.2722 31.8119 36.1728 31.9122C36.0734 31.9624 35.9741 31.9373 35.8747 31.837C35.4275 31.9875 35.1791 32.0376 35.1294 31.9875C35.0797 31.8872 35.0052 31.8621 34.9058 31.9122C34.2599 32.0627 33.8624 32.188 33.7133 32.2883C33.614 32.3385 33.5146 32.3636 33.4152 32.3636C33.2165 32.3636 33.0177 32.3385 32.819 32.2883C32.5706 32.2382 32.3221 32.2131 32.0737 32.2131C31.5768 31.9624 31.3284 31.837 31.3284 31.837L29.9124 31.5361C29.4652 31.135 29.2168 30.9595 29.1671 31.0096C29.0677 31.0597 28.9683 31.0848 28.869 31.0848C28.5708 30.8842 28.4218 30.7338 28.4218 30.6335C28.4218 30.4831 28.3721 30.4329 28.2727 30.4831C27.9249 29.9816 27.6517 29.6807 27.4529 29.5804C27.3535 29.2294 27.2045 28.9786 27.0057 28.8282C26.807 28.6276 26.7325 28.3267 26.7821 27.9256C26.484 27.6247 26.335 27.4241 26.335 27.3238C26.335 27.2235 26.3101 27.1232 26.2604 27.0229C26.0617 26.4713 25.9872 26.1704 26.0369 26.1203C26.0369 26.0701 26.012 25.9949 25.9623 25.8946C25.9623 25.6439 25.9375 25.4433 25.8878 25.2929C25.7884 25.0923 25.7139 24.8917 25.6642 24.6911C25.7636 24.0893 25.7884 23.6631 25.7387 23.4123C25.6891 23.1616 25.6642 22.9359 25.6642 22.7354C25.8133 22.3843 25.8878 22.1085 25.8878 21.9079C26.0369 21.5569 26.1114 21.3062 26.1114 21.1557C26.1114 21.0053 26.1611 20.8548 26.2604 20.7044C26.5089 19.4507 26.8318 18.5732 27.2293 18.0717C27.3784 17.5201 27.4778 17.2192 27.5274 17.1691C27.8752 16.5673 28.1485 16.2664 28.3473 16.2664C28.3473 16.0658 28.3969 15.9154 28.4963 15.8151C28.5957 15.7148 28.6454 15.5643 28.6454 15.3638C29.1422 14.8623 29.5646 14.4862 29.9124 14.2355C30.2602 13.9346 30.5583 13.5835 30.8067 13.1824C31.0055 13.0319 31.1794 12.9567 31.3284 12.9567C31.4278 12.9066 31.4775 12.8063 31.4775 12.6558C31.8253 12.4051 32.0489 12.2296 32.1482 12.1293C32.2476 12.029 32.347 11.9287 32.4464 11.8284C32.9432 11.6278 33.3159 11.2768 33.5643 10.7753C34.0612 10.5246 34.3096 10.3741 34.3096 10.324C34.6574 10.1234 34.881 10.0231 34.9803 10.0231C35.0797 9.97297 35.2039 9.89775 35.353 9.79745C35.8002 9.49657 36.0734 9.34613 36.1728 9.34613C36.3219 9.29598 36.4212 9.19569 36.4709 9.04525C36.8684 8.79452 37.1417 8.66915 37.2907 8.66915C37.4895 8.66915 37.6634 8.64407 37.8124 8.59393C38.0609 8.54378 38.3093 8.39334 38.5577 8.14261C39.154 7.99216 39.4769 7.89187 39.5266 7.84172L41.3898 7.3904L42.8059 6.86386C43.2531 6.56298 43.5512 6.41254 43.7002 6.41254C43.899 6.41254 44.0977 6.36239 44.2965 6.2621C44.7933 6.11166 45.1163 6.06151 45.2654 6.11166C45.4144 6.1618 45.5386 6.11166 45.638 5.96121C45.7871 6.06151 45.9361 6.08658 46.0852 6.03644C46.2839 5.98629 46.4578 5.96121 46.6069 5.96121C46.8553 5.91107 47.0789 5.91107 47.2776 5.96121C47.4764 5.96121 47.6751 5.91107 47.8739 5.81077C48.0229 5.91107 48.1968 5.93614 48.3956 5.88599C48.644 5.83585 48.8428 5.88599 48.9918 6.03644C49.588 5.98629 49.8365 5.98629 49.7371 6.03644C49.6874 6.03644 49.7371 6.01136 49.8862 5.96121C50.234 6.06151 50.4327 6.08658 50.4824 6.03644C50.5818 5.93614 50.6811 5.91107 50.7805 5.96121C51.0786 6.01136 51.2774 6.03644 51.3767 6.03644C51.4761 5.98629 51.6252 5.96121 51.8239 5.96121H52.4947ZM72.3939 6.33732C72.1455 6.58805 71.8971 6.71342 71.6486 6.71342C71.1518 6.96415 70.8785 7.08952 70.8288 7.08952L69.86 7.3904C69.6115 7.44055 69.3879 7.4907 69.1892 7.54084C69.0401 7.54084 68.9159 7.56592 68.8165 7.61606C68.5681 8.16768 68.3445 8.51871 68.1458 8.66915C67.947 8.76944 67.7483 8.89481 67.5495 9.04525C67.4005 9.89775 66.9782 10.4243 66.2826 10.6249C66.0341 10.9759 65.9099 11.1765 65.9099 11.2266C65.9596 11.2768 65.9596 11.3269 65.9099 11.3771C65.5124 11.8284 65.2888 12.0791 65.2391 12.1293C65.2391 12.1794 65.1895 12.2547 65.0901 12.3549C65.0901 12.9567 64.941 13.3579 64.6429 13.5585C64.5932 13.9596 64.5435 14.2355 64.4939 14.3859C64.4939 14.5363 64.4442 14.7119 64.3448 14.9124C63.997 15.2133 63.7983 15.3888 63.7486 15.439C63.6989 15.4891 63.6492 15.5643 63.5995 15.6646C63.5995 16.0658 63.5498 16.3416 63.4505 16.4921C63.4008 16.5924 63.3759 16.6927 63.3759 16.7929C63.0281 17.3446 62.8294 17.7708 62.7797 18.0717C62.7797 18.3726 62.6555 18.6233 62.407 18.8239C62.407 19.1248 62.3077 19.3504 62.1089 19.5009C61.9599 19.6513 61.8853 19.877 61.8853 20.1779C61.6866 20.4787 61.5375 20.6793 61.4382 20.7796C61.3885 20.8298 61.3885 20.905 61.4382 21.0053C61.4382 21.7073 61.3885 22.1587 61.2891 22.3593C61.1897 22.5097 61.1152 22.6601 61.0655 22.8106C60.8668 23.1115 60.7674 23.312 60.7674 23.4123C60.8171 23.4625 60.7922 23.5377 60.6929 23.638C60.6929 24.0392 60.668 24.2899 60.6183 24.3902C60.5687 24.4404 60.4941 24.4654 60.3948 24.4654C60.1463 25.2678 59.9227 25.7191 59.724 25.8194C59.6743 26.2206 59.6495 26.4462 59.6495 26.4964C59.6992 26.5465 59.724 26.5967 59.724 26.6468C59.724 26.8474 59.6743 27.048 59.5749 27.2486C59.5253 27.399 59.5501 27.5495 59.6495 27.6999C59.401 27.8503 59.3265 28.0509 59.4259 28.3017C59.5253 28.5023 59.5501 28.7279 59.5004 28.9786C59.3017 29.43 59.1775 29.7058 59.1278 29.8061C59.1278 29.9064 59.0035 29.9314 58.7551 29.8813C58.8545 30.0819 58.929 30.2825 58.9787 30.4831C59.0284 30.6335 59.0035 30.8341 58.9042 31.0848C58.6557 31.486 58.5812 31.7367 58.6806 31.837C58.78 31.8872 58.8296 31.9624 58.8296 32.0627C58.7303 32.163 58.6309 32.2883 58.5315 32.4388C58.4322 32.5391 58.3079 32.6394 58.1589 32.7397C58.1589 33.2411 58.1092 33.4919 58.0098 33.4919C57.9601 33.4417 57.9601 33.4668 58.0098 33.5671C57.9601 33.868 57.8856 34.1187 57.7862 34.3193C57.7366 34.5199 57.7366 34.7957 57.7862 35.1467C57.7366 35.6482 57.662 35.9491 57.5627 36.0494C57.513 36.0995 57.4384 36.1747 57.3391 36.275C57.5378 36.6762 57.5627 37.0774 57.4136 37.4785C57.2645 37.8797 57.1403 38.2809 57.041 38.6821C57.041 39.2337 56.9167 39.6599 56.6683 39.9608C56.4199 40.2617 56.246 40.5626 56.1466 40.8635C56.1466 41.0139 56.1714 41.1393 56.2211 41.2396C56.3205 41.3399 56.3702 41.4903 56.3702 41.6909C55.9727 42.0921 55.8236 42.3428 55.923 42.4431C56.0721 42.5434 56.1466 42.6938 56.1466 42.8944C56.0472 43.1452 55.9479 43.3457 55.8485 43.4962C55.7988 43.6466 55.8236 43.772 55.923 43.8723C55.8236 44.5242 55.7243 44.9504 55.6249 45.151C55.5752 45.3015 55.6001 45.4268 55.6994 45.5271C55.5007 45.8782 55.3765 46.154 55.3268 46.3546C55.2771 46.505 55.2026 46.6805 55.1032 46.8811C55.6001 47.2823 55.9975 47.533 56.2957 47.6333C56.5938 47.6834 56.9167 47.6834 57.2645 47.6333C57.8111 47.533 58.1092 47.5079 58.1589 47.5581C58.2086 47.5581 58.2831 47.5581 58.3825 47.5581C58.9787 47.4578 59.2768 47.4327 59.2768 47.4829C59.3265 47.4829 59.3762 47.4829 59.4259 47.4829C60.0221 47.4829 60.3202 47.4829 60.3202 47.4829C60.3699 47.4327 60.4444 47.4076 60.5438 47.4076C60.6432 47.4578 60.8171 47.533 61.0655 47.6333C61.3636 47.6834 61.5872 47.6333 61.7363 47.4829C61.8853 47.6333 62.0344 47.6834 62.1835 47.6333C62.3325 47.533 62.5313 47.4829 62.7797 47.4829C63.1275 47.5832 63.3511 47.6082 63.4505 47.5581C63.5995 47.5079 63.7237 47.4829 63.8231 47.4829C64.3696 47.5832 64.7174 47.6082 64.8665 47.5581C65.0652 47.5079 65.2888 47.4829 65.5373 47.4829C65.6863 47.4327 65.8354 47.4327 65.9844 47.4829C66.1335 47.533 66.3074 47.533 66.5061 47.4829C67.2514 47.4327 67.7731 47.4076 68.0713 47.4076C68.3694 47.3575 68.6675 47.3826 68.9656 47.4829C69.0153 47.3324 69.0153 47.182 68.9656 47.0315C68.9159 46.8811 68.9159 46.7307 68.9656 46.5802C68.9656 46.179 69.0153 45.8029 69.1147 45.4519C69.2637 45.0507 69.2886 44.6997 69.1892 44.3988C69.2389 43.7971 69.2637 43.2705 69.2637 42.8192C69.3134 42.3679 69.4625 42.0168 69.7109 41.7661C69.5618 41.6658 69.5121 41.5154 69.5618 41.3148C69.6115 41.0641 69.6612 40.8384 69.7109 40.6378C69.7109 40.1363 69.6861 39.7853 69.6364 39.5847C69.6364 39.3841 69.6612 39.1835 69.7109 38.983C69.7606 38.8827 69.7854 38.6319 69.7854 38.2308C69.7854 37.8296 69.8103 37.6039 69.86 37.5538C69.8103 37.0022 69.7854 36.6762 69.7854 36.5759C69.7854 36.4756 69.8103 36.3753 69.86 36.275C70.009 35.7234 70.0587 35.4225 70.009 35.3724C70.009 35.3222 70.009 35.247 70.009 35.1467C70.009 35.0966 70.009 34.9712 70.009 34.7706C70.009 34.57 70.0339 34.3945 70.0835 34.2441C70.1829 33.8429 70.2078 33.5922 70.1581 33.4919C70.1581 33.3414 70.1829 33.191 70.2326 33.0406C70.332 32.7397 70.3568 32.5642 70.3071 32.514C70.3071 32.4137 70.3071 32.3134 70.3071 32.2131C70.3071 32.0627 70.332 31.9373 70.3817 31.837C70.481 31.6866 70.5059 31.5361 70.4562 31.3857C70.6549 31.0347 70.7046 30.8592 70.6052 30.8592C70.5556 30.809 70.5556 30.6836 70.6052 30.4831C70.6052 29.8813 70.6301 29.5052 70.6798 29.3547C70.7791 29.1542 70.8537 28.9285 70.9034 28.6778C70.953 28.427 70.9779 28.2014 70.9779 28.0008C70.9779 27.8002 71.0524 27.5996 71.2015 27.399C71.1518 27.048 71.1269 26.7471 71.1269 26.4964L71.2015 24.992C71.4002 24.5908 71.4996 24.3401 71.4996 24.2398C71.4996 24.1395 71.4996 24.0392 71.4996 23.9389C71.4996 23.3873 71.599 22.961 71.7977 22.6601C71.748 22.259 71.748 21.9581 71.7977 21.7575C71.8474 21.5569 71.8226 21.4065 71.7232 21.3062C71.8226 20.905 71.8971 20.6292 71.9468 20.4787C71.9965 20.3283 71.9965 20.1277 71.9468 19.877C72.1952 19.1248 72.2697 18.5481 72.1704 18.1469C72.1207 17.7457 72.2449 17.4198 72.543 17.1691C72.4933 16.7679 72.4436 16.5171 72.3939 16.4168C72.3443 16.2664 72.3194 16.1661 72.3194 16.116C72.4685 15.6646 72.5182 15.2885 72.4685 14.9877C72.7169 14.3859 72.8163 13.9847 72.7666 13.7841C72.7666 13.5334 72.8163 13.3077 72.9156 13.1072C73.1144 12.6558 73.1889 12.38 73.1392 12.2797C73.1392 12.1794 73.1392 12.029 73.1392 11.8284C73.2386 11.678 73.2883 11.5275 73.2883 11.3771C73.2883 11.2266 73.2883 11.1013 73.2883 11.001C73.3877 10.5497 73.4125 10.2989 73.3628 10.2488C73.3628 10.1986 73.3877 10.1234 73.4373 10.0231C73.5864 9.77238 73.6858 9.57179 73.7355 9.42135C73.7851 9.27091 73.7851 9.14554 73.7355 9.04525C73.8845 8.79452 73.9342 8.51871 73.8845 8.21783C74.1826 7.46562 74.282 6.98923 74.1826 6.78864C74.1329 6.5379 74.1329 6.33732 74.1826 6.18688C73.9342 6.08658 73.6609 6.08658 73.3628 6.18688C73.0647 6.23702 72.7417 6.28717 72.3939 6.33732Z" fill="#202020"/>
<path d="M104.516 35.4476C104.417 36.0494 104.367 36.3753 104.367 36.4255C104.417 36.4756 104.441 36.5258 104.441 36.5759C104.392 36.9771 104.367 37.2529 104.367 37.4033C104.417 37.5538 104.417 37.7042 104.367 37.8547C104.317 37.9549 104.218 38.0803 104.069 38.2308C103.969 38.331 103.969 38.4815 104.069 38.6821C103.771 39.0833 103.671 39.3089 103.771 39.3591C103.87 39.4092 103.92 39.4594 103.92 39.5095C103.969 40.0611 103.969 40.4121 103.92 40.5626C103.87 40.713 103.845 40.8384 103.845 40.9387C103.845 41.5906 103.796 41.9667 103.696 42.067C103.746 42.3679 103.721 42.6437 103.622 42.8944C103.572 43.1452 103.622 43.3457 103.771 43.4962C103.82 44.0478 103.82 44.3988 103.771 44.5493C103.771 44.6496 103.82 44.7749 103.92 44.9254C103.721 45.5271 103.646 45.8782 103.696 45.9785C103.895 46.5301 103.994 46.9312 103.994 47.182C103.994 47.3826 104.069 47.5832 104.218 47.7837C104.069 48.1849 104.044 48.561 104.143 48.912C104.243 49.2631 104.317 49.6392 104.367 50.0404C104.317 50.592 104.317 50.8928 104.367 50.943C104.417 50.943 104.441 50.9931 104.441 51.0934C104.541 51.3442 104.59 51.6451 104.59 51.9961C104.59 52.297 104.665 52.5477 104.814 52.7483C104.814 53.4503 104.988 53.8766 105.336 54.027C105.286 54.3781 105.311 54.5786 105.41 54.6288C105.51 54.6789 105.559 54.7542 105.559 54.8545C105.46 55.1052 105.485 55.3058 105.634 55.4562C105.783 55.5565 105.783 55.6819 105.634 55.8323C105.833 55.9326 106.031 56.0078 106.23 56.058C106.429 56.058 106.578 56.1332 106.677 56.2836C106.975 56.2836 107.224 56.3338 107.423 56.4341C107.671 56.5344 107.919 56.5093 108.168 56.3589C108.565 56.1583 108.814 55.9577 108.913 55.7571C109.261 55.7571 109.509 55.707 109.658 55.6067C109.857 55.5064 110.056 55.4061 110.255 55.3058C110.404 55.1052 110.528 55.0049 110.627 55.0049C110.727 54.9548 110.851 54.9297 111 54.9297C110.901 55.1303 110.801 55.3058 110.702 55.4562C110.603 55.6067 110.603 55.8323 110.702 56.1332C110.453 56.2335 110.205 56.3589 109.957 56.5093C109.758 56.6096 109.584 56.7851 109.435 57.0358C108.938 57.437 108.64 57.6878 108.541 57.7881C108.441 57.8883 108.292 57.9385 108.093 57.9385C107.597 58.3898 107.348 58.7158 107.348 58.9164C107.199 59.0167 107.025 59.0668 106.826 59.0668C106.677 59.1169 106.553 59.1922 106.454 59.2925C106.156 59.6435 105.957 59.819 105.857 59.819C105.808 59.819 105.758 59.8942 105.708 60.0447C105.013 60.1951 104.541 60.2453 104.292 60.1951C104.094 60.1951 103.87 60.1951 103.622 60.1951C103.125 60.0948 102.802 59.9444 102.653 59.7438C102.504 59.5933 102.33 59.5933 102.131 59.7438C102.032 59.3928 101.783 59.2423 101.386 59.2925C101.137 58.9916 100.963 58.7408 100.864 58.5403C100.814 58.3898 100.69 58.2644 100.491 58.1642C100.442 58.0639 100.417 57.9385 100.417 57.7881C100.417 57.5875 100.392 57.437 100.342 57.3367C100.293 57.2364 100.218 57.086 100.119 56.8854C100.069 56.6347 100.069 56.409 100.119 56.2084C99.8206 55.3559 99.5971 54.7542 99.448 54.4031C99.3486 54.0521 99.3486 53.7262 99.448 53.4253C99.3486 53.0241 99.2741 52.7734 99.2244 52.6731C99.1747 52.5226 99.1499 52.4223 99.1499 52.3722C99.1499 52.0713 99.125 51.8206 99.0753 51.62C99.0753 51.4194 99.0753 51.1687 99.0753 50.8678C99.125 50.2159 99.1002 49.7896 99.0008 49.589C98.9511 49.3383 98.9263 49.0876 98.9263 48.8368C98.976 48.2852 98.976 47.9843 98.9263 47.9342C98.9263 47.884 98.9263 47.8088 98.9263 47.7085C98.976 47.2572 98.976 46.9814 98.9263 46.8811C98.8766 46.7808 98.8518 46.6805 98.8518 46.5802C98.3052 46.8811 97.9574 47.1068 97.8084 47.2572C97.709 47.3575 97.6096 47.4829 97.5102 47.6333C97.4109 47.9342 97.2867 48.1348 97.1376 48.2351C96.9885 48.2852 96.8643 48.3604 96.7649 48.4607C96.4668 48.7115 96.2929 48.912 96.2432 49.0625C96.2432 49.2129 96.1936 49.3383 96.0942 49.4386C95.7961 49.6392 95.5973 49.7896 95.498 49.8899C95.4483 49.9401 95.4483 50.0654 95.498 50.266C95.2992 50.3663 95.1502 50.4917 95.0508 50.6421C94.9514 50.7926 94.7775 50.9179 94.5291 51.0182C94.2806 51.3692 94.0322 51.6701 93.7838 51.9209C93.5354 52.1716 93.3118 52.3471 93.113 52.4474C92.964 52.4976 92.8398 52.6229 92.7404 52.8235C92.3429 53.0742 92.0945 53.2748 91.9951 53.4253C91.9454 53.5757 91.846 53.7011 91.697 53.8014C91.2498 54.0521 91.0014 54.2276 90.9517 54.3279C90.902 54.3781 90.8275 54.3781 90.7281 54.3279C90.0822 54.8795 89.7592 55.2306 89.7592 55.381C89.2624 55.5816 88.9642 55.7571 88.8649 55.9075C88.7655 56.058 88.5667 56.1081 88.2686 56.058C87.7718 56.3589 87.2749 56.4842 86.7781 56.4341C86.2812 56.3338 85.8837 56.2335 85.5856 56.1332C85.3868 56.0329 85.2378 55.9577 85.1384 55.9075C85.039 55.8574 84.89 55.8072 84.6912 55.7571C84.2441 55.5064 83.9708 55.3058 83.8714 55.1553C83.772 54.9548 83.5981 54.8043 83.3497 54.704C83.4988 54.4533 83.4988 54.2276 83.3497 54.027C83.2007 53.7763 83.0764 53.5757 82.9771 53.4253C83.0268 53.1745 83.0268 52.999 82.9771 52.8987C82.9274 52.7483 82.8777 52.6229 82.828 52.5226C82.7783 51.9209 82.7783 51.5949 82.828 51.5448C82.8777 51.4946 82.9025 51.4445 82.9025 51.3943C82.9025 51.1937 82.8777 51.0182 82.828 50.8678C82.7783 50.6672 82.7783 50.4666 82.828 50.266C83.0268 49.7144 83.1013 49.3132 83.0516 49.0625C83.0516 48.8118 83.1013 48.5861 83.2007 48.3855C83.3497 48.1348 83.3994 47.9593 83.3497 47.859C83.3497 47.7085 83.3746 47.5832 83.4242 47.4829C83.6727 47.0817 83.7969 46.831 83.7969 46.7307C83.8963 46.179 83.9708 45.9032 84.0205 45.9032C84.1199 45.5522 84.2192 45.3516 84.3186 45.3015C84.4677 45.2012 84.4925 45.0507 84.3931 44.8501C84.5919 44.4991 84.6912 44.2735 84.6912 44.1732C84.7409 44.0729 84.7906 43.9726 84.8403 43.8723C85.039 43.8221 85.1881 43.6968 85.2875 43.4962C85.3868 43.2956 85.3868 43.0699 85.2875 42.8192C85.7346 42.6186 85.9582 42.4431 85.9582 42.2927C85.9582 42.0921 86.0079 41.9166 86.1073 41.7661C86.4551 41.5154 86.7781 41.3148 87.0762 41.1643C87.3743 40.9638 87.5233 40.6378 87.5233 40.1865C87.8215 39.8355 88.045 39.6349 88.1941 39.5847C88.3928 39.4844 88.5171 39.3089 88.5667 39.0582C88.7158 38.9579 88.84 38.8576 88.9394 38.7573C89.0388 38.6069 89.1381 38.4815 89.2375 38.3812C89.4859 38.1305 89.6102 37.98 89.6102 37.9299C89.6102 37.8797 89.6598 37.8045 89.7592 37.7042C90.3058 37.4033 90.6287 37.2027 90.7281 37.1024C91.0759 36.7013 91.2995 36.4505 91.3989 36.3502C91.4982 36.25 91.6473 36.1747 91.846 36.1246C92.2435 35.7736 92.641 35.4977 93.0385 35.2972C93.2372 35.1969 93.3863 35.1467 93.4857 35.1467C93.6347 35.0966 93.7589 34.9963 93.8583 34.8458C94.3055 34.7455 94.703 34.6452 95.0508 34.545C95.7464 34.1939 96.2681 34.0686 96.6159 34.1689C96.9637 34.219 97.386 34.219 97.8829 34.1689C98.3797 34.3694 98.6779 34.5199 98.7772 34.6202C98.9263 34.7205 99.0505 34.7957 99.1499 34.8458C99.2989 34.8458 99.4728 34.8208 99.6716 34.7706C99.8703 34.7205 100.044 34.7455 100.193 34.8458C100.69 35.247 100.963 35.4476 101.013 35.4476C101.112 35.4476 101.212 35.4977 101.311 35.598C101.907 35.8989 102.355 35.9491 102.653 35.7485C102.951 35.5479 103.224 35.3724 103.473 35.2219C103.671 35.2721 103.845 35.2972 103.994 35.2972C104.193 35.247 104.367 35.2972 104.516 35.4476ZM95.3489 38.7573C95.1005 38.7573 94.9266 38.7071 94.8272 38.6069C94.7775 38.5066 94.703 38.4313 94.6036 38.3812C94.1564 38.2809 93.7838 38.306 93.4857 38.4564C93.1876 38.6069 92.8398 38.6821 92.4423 38.6821C91.9454 39.1334 91.697 39.3841 91.697 39.4343C91.3989 39.8355 91.1753 40.1113 91.0262 40.2617C90.8772 40.4121 90.8523 40.6127 90.9517 40.8635C90.3554 41.1142 90.0573 41.4151 90.0573 41.7661C90.0573 42.1171 89.8834 42.3428 89.5356 42.4431C89.4859 42.6938 89.4114 42.9195 89.312 43.1201C89.2127 43.3207 89.1381 43.5463 89.0885 43.7971C88.9394 44.3988 88.8649 44.7248 88.8649 44.7749C88.9146 44.8251 88.9146 44.9003 88.8649 45.0006C88.7655 45.2513 88.6413 45.477 88.4922 45.6776C88.3928 45.8782 88.3928 46.0537 88.4922 46.2041C88.3432 46.7557 88.2438 47.1318 88.1941 47.3324C88.1444 47.533 88.0699 47.7587 87.9705 48.0094C88.0202 48.4607 88.045 48.8118 88.045 49.0625C88.045 49.3132 88.0699 49.589 88.1196 49.8899C88.2189 50.1908 88.2686 50.4666 88.2686 50.7173C88.6661 51.1185 88.8649 51.3191 88.8649 51.3191C88.9146 51.3191 88.9394 51.3442 88.9394 51.3943C89.635 51.4946 90.0076 51.5698 90.0573 51.62C90.1567 51.6701 90.3058 51.7453 90.5045 51.8456C90.7529 51.5949 91.0014 51.3943 91.2498 51.2439C91.4982 51.0934 91.6721 50.8176 91.7715 50.4165C92.2684 49.9651 92.5665 49.6642 92.6658 49.5138C92.8149 49.3132 93.0136 49.1628 93.2621 49.0625C93.7589 48.4106 94.0074 48.0846 94.0074 48.0846C94.4049 47.7837 94.6284 47.533 94.6781 47.3324C94.7775 47.1318 94.8769 46.856 94.9762 46.505C95.2247 46.3044 95.3737 46.179 95.4234 46.1289C95.5228 46.0286 95.5476 45.8782 95.498 45.6776C95.5973 45.477 95.6967 45.3015 95.7961 45.151C95.9451 44.9504 96.0197 44.7248 96.0197 44.474C96.2681 44.3738 96.4171 44.2484 96.4668 44.0979C96.5662 43.8974 96.7401 43.7971 96.9885 43.7971C97.0382 43.2956 97.1127 43.0198 97.2121 42.9696C97.3115 42.8693 97.4605 42.8192 97.6593 42.8192C97.7587 42.2676 97.858 41.8664 97.9574 41.6157C98.0568 41.3649 98.1562 41.1142 98.2555 40.8635C97.9077 40.4623 97.7338 40.1614 97.7338 39.9608C97.3363 39.7101 97.0879 39.5847 96.9885 39.5847C96.9389 39.5346 96.8892 39.4594 96.8395 39.3591C96.6407 39.2588 96.442 39.1835 96.2432 39.1334C96.0942 39.0331 95.9203 38.9579 95.7215 38.9077L95.3489 38.7573Z" fill="#202020"/>
</svg>
