<svg width="136" height="96" viewBox="0 0 136 96" fill="none" xmlns="http://www.w3.org/2000/svg">
<path d="M72.8361 71.5125L64.8404 72.671C63.5078 68.0367 62.0962 63.4364 60.6055 58.8702L33.3322 60.0629C31.706 64.3565 30.1588 68.7069 28.6907 73.114L21 72.0577C24.1847 63.4705 27.7082 55.0197 31.5705 46.7051C35.4554 38.3906 39.5887 30.1555 43.9705 22L53.4568 22.1704C57.3417 30.0533 60.8878 38.0952 64.0951 46.2962C67.3024 54.4744 70.216 62.8799 72.8361 71.5125ZM48.0022 27.6566C45.7209 32.0183 43.5639 36.4028 41.5311 40.81C39.4984 45.1944 37.5559 49.6356 35.7038 54.1337L58.6066 53.1455C57.0707 48.7837 55.4219 44.5015 53.6601 40.2988C51.8984 36.0961 50.0124 31.882 48.0022 27.6566Z" fill="#202020"/>
<path d="M112.475 74L105.835 72.8755L106.309 68.0708C103.554 69.8427 100.843 71.1263 98.1781 71.9214C95.5355 72.7165 93.0623 73.114 90.7585 73.114C89.1322 73.114 87.5512 72.8982 86.0153 72.4666C84.502 72.0577 83.1694 71.4102 82.0175 70.5242C80.843 69.661 79.8944 68.5592 79.1716 67.2189C78.4714 65.8558 78.1213 64.2543 78.1213 62.4142C78.1213 60.574 78.3923 58.927 78.9344 57.4731C79.4765 56.0192 80.2219 54.7357 81.1705 53.6225C82.1191 52.5094 83.2372 51.5553 84.5246 50.7602C85.812 49.9651 87.2011 49.3176 88.6918 48.8178C90.1599 48.318 91.7071 47.9546 93.3333 47.7274C94.9596 47.4775 96.5745 47.3526 98.1781 47.3526C99.6688 47.3526 101.058 47.4093 102.345 47.5229C103.633 47.6365 104.773 47.7842 105.767 47.9659C105.361 46.353 104.807 44.8423 104.107 43.4338C103.43 42.0253 102.526 40.8895 101.397 40.0262C100.29 39.1402 98.8557 38.6972 97.094 38.6972C96.2131 38.6972 95.208 38.8336 94.0787 39.1062C92.9494 39.3561 91.7071 39.8218 90.3519 40.5033C88.9967 41.1848 87.5173 42.1276 85.9137 43.3316C84.31 44.5129 82.5934 46.0349 80.7639 47.8978L76.6645 42.8886C78.8328 40.844 80.9107 39.1743 82.8984 37.8794C84.886 36.5845 86.7607 35.5623 88.5224 34.8126C90.2616 34.0856 91.8765 33.5858 93.3672 33.3132C94.8805 33.0406 96.2357 32.9043 97.4328 32.9043C99.5333 32.9043 101.385 33.2564 102.989 33.9607C104.615 34.6649 106.05 35.6418 107.292 36.8912C108.534 38.118 109.573 39.5719 110.409 41.2529C111.222 42.8659 111.911 44.6606 112.475 46.637C113.017 48.5679 113.401 50.5671 113.627 52.6343C113.876 54.7016 114 56.7575 114 58.8021C114 60.983 113.876 63.3228 113.627 65.8218C113.379 68.3207 112.995 71.0467 112.475 74ZM106.784 60.4718C106.829 59.336 106.863 58.2114 106.885 57.0983C106.908 55.9851 106.851 54.8266 106.716 53.6225C105.609 53.2818 104.446 53.0092 103.226 52.8047C102.007 52.6003 100.787 52.498 99.5672 52.498C97.5344 52.498 95.5581 52.7366 93.6382 53.2136C91.741 53.6907 90.1035 54.3836 88.7257 55.2923C87.3479 56.201 86.3089 57.3141 85.6087 58.6317C84.9311 59.9493 84.7956 61.4487 85.2022 63.1298C85.5184 64.4928 86.1282 65.4469 87.0317 65.9921C87.9577 66.5374 89.0645 66.81 90.3519 66.81C92.0233 66.81 93.898 66.4578 95.976 65.7536C98.0539 65.0266 100.053 64.1634 101.973 63.1638C103.915 62.1643 105.519 61.2669 106.784 60.4718Z" fill="#202020"/>
</svg>
