<svg width="136" height="96" viewBox="0 0 136 96" fill="none" xmlns="http://www.w3.org/2000/svg">
<path d="M39.6464 80.2429H30L43.5239 14H56.764L70.1933 80.2429H60.3577L57.1423 63.3037H42.8618L39.6464 80.2429ZM49.9548 26.9647L44.4696 54.3136H55.5345L50.0493 26.9647H49.9548Z" fill="#202020"/>
<path d="M83.7755 81C82.0101 81 80.4339 80.7161 79.0469 80.1483C77.6598 79.5174 76.4934 78.6657 75.5477 77.5932C74.665 76.4576 73.9715 75.1328 73.4671 73.6186C73.0258 72.1045 72.8051 70.3696 72.8051 68.4138V64.4393C72.8051 62.1681 73.1834 60.3701 73.94 59.0452C74.6965 57.7203 75.6738 56.6478 76.8717 55.8277C78.0696 54.9444 79.4252 54.282 80.9383 53.8404C82.5145 53.3357 84.0907 52.8625 85.6669 52.4209C86.8649 52.1055 87.9682 51.8216 88.977 51.5692C89.9857 51.2538 90.8684 50.8752 91.625 50.4336C92.3816 49.992 92.949 49.4242 93.3273 48.7302C93.7686 48.0363 93.9893 47.0899 93.9893 45.8912V42.9576C93.9893 42.0113 93.8632 41.2227 93.611 40.5918C93.4219 39.8978 93.1066 39.33 92.6653 38.8884C92.224 38.4468 91.6565 38.1314 90.963 37.9421C90.3325 37.7528 89.5444 37.6582 88.5987 37.6582C87.716 37.6582 86.9279 37.7528 86.2344 37.9421C85.5408 38.1314 84.9104 38.4783 84.3429 38.9831C83.8385 39.4247 83.4287 40.0556 83.1135 40.8757C82.8613 41.6328 82.7352 42.6422 82.7352 43.904V47.8785H73.94V43.9986C73.94 41.6643 74.2867 39.6139 74.9803 37.8475C75.6738 36.081 76.651 34.5984 77.912 33.3997C79.236 32.1379 80.8122 31.1916 82.6406 30.5607C84.5321 29.9298 86.6442 29.6144 88.977 29.6144C91.4989 29.6144 93.6425 29.9298 95.4079 30.5607C97.1732 31.1916 98.6234 32.1379 99.7582 33.3997C100.956 34.5984 101.807 36.1125 102.312 37.9421C102.879 39.7086 103.163 41.7905 103.163 44.1879V70.685C103.163 72.073 103.257 73.0824 103.447 73.7133C103.699 74.2811 104.203 74.5965 104.96 74.6596C105.149 74.6596 105.306 74.6596 105.433 74.6596C105.622 74.5965 105.811 74.5334 106 74.4703V80.2429C105.243 80.3691 104.455 80.4322 103.636 80.4322C102.879 80.4322 102.091 80.4322 101.271 80.4322C100.073 80.4322 99.0332 80.3376 98.1505 80.1483C97.3309 79.896 96.6373 79.5174 96.0699 79.0127C95.5655 78.4449 95.1872 77.7825 94.935 77.0254C94.6828 76.2053 94.5252 75.2274 94.4622 74.0918C94.0208 75.1012 93.4534 76.0476 92.7599 76.9308C92.0663 77.7509 91.2782 78.4765 90.3956 79.1073C89.5129 79.6751 88.5041 80.1168 87.3692 80.4322C86.2344 80.8107 85.0365 81 83.7755 81ZM87.1801 73.0508C88.315 73.0508 89.2922 72.8931 90.1118 72.5777C90.9315 72.1992 91.625 71.6629 92.1924 70.9689C92.8229 70.275 93.2643 69.3917 93.5164 68.3192C93.8317 67.2467 93.9893 66.0165 93.9893 64.6285V55.4492C93.7371 55.6384 93.4219 55.8592 93.0436 56.1116C92.6653 56.3008 92.2555 56.4901 91.8141 56.6794C91.3728 56.8686 90.8999 57.0264 90.3956 57.1525C89.8912 57.2787 89.3553 57.4049 88.7878 57.5311C88.0943 57.7203 87.3377 57.9096 86.5181 58.0989C85.7615 58.2881 85.0365 58.572 84.3429 58.9506C83.7124 59.266 83.1765 59.7707 82.7352 60.4647C82.3569 61.0956 82.1678 61.9788 82.1678 63.1144V67.5621C82.1678 68.5085 82.2623 69.3286 82.4515 70.0226C82.7037 70.7166 83.0504 71.3159 83.4918 71.8206C83.9331 72.2622 84.4375 72.5777 85.0049 72.7669C85.6354 72.9562 86.3605 73.0508 87.1801 73.0508Z" fill="#202020"/>
</svg>
