<svg width="136" height="96" viewBox="0 0 136 96" fill="none" xmlns="http://www.w3.org/2000/svg">
<path d="M12.7841 52.8335C12.7841 53.2895 12.6462 53.6695 12.3705 53.9735C12.1198 54.2521 11.7814 54.4928 11.3553 54.6954C10.9291 54.8981 10.4153 55.0627 9.81366 55.1894C9.23712 55.316 8.63552 55.43 8.00885 55.5314C7.48244 55.6327 6.85577 55.8733 6.12884 56.2533C5.4019 56.6333 4.70003 57.2159 4.02322 58.0012C3.34642 58.7612 2.76988 59.7744 2.29361 61.041C1.84241 62.2823 1.61681 63.8275 1.61681 65.6767C1.61681 67.5766 1.86748 69.1598 2.36881 70.4264C2.89522 71.6677 3.58455 72.6683 4.43683 73.4282C5.2891 74.1882 6.25417 74.7328 7.33204 75.0621C8.43498 75.3661 9.56299 75.5181 10.7161 75.5181C12.0195 75.5181 13.2603 75.3281 14.4385 74.9481C15.6166 74.5682 16.7572 73.9982 17.8601 73.2382C18.963 72.4783 20.0535 71.5157 21.1313 70.3504C22.2092 69.1852 23.3121 67.8173 24.4401 66.2467C25.8188 64.2961 27.1599 62.1556 28.4634 59.8251C29.7919 57.4692 31.0954 55.0247 32.3738 52.4916C33.6522 49.9331 34.893 47.3366 36.0962 44.7021C37.3245 42.0676 38.5152 39.4837 39.6682 36.9505C40.8464 34.4174 41.9869 31.9855 43.0899 29.655C44.2179 27.3245 45.3083 25.1966 46.3611 23.2714C47.464 21.2702 48.4542 19.6616 49.3315 18.4457C50.2339 17.2045 51.0862 16.2672 51.8883 15.6339C52.7155 14.9753 53.5427 14.5446 54.3699 14.342C55.1971 14.114 56.0995 14 57.0771 14C59.8846 14 61.915 14.608 63.1684 15.8239C64.4217 17.0398 65.0484 18.851 65.0484 21.2575C65.0484 23.1068 64.735 25.3106 64.1084 27.8691C63.4817 30.4276 62.6921 33.1761 61.7396 36.1146C60.787 39.0277 59.7593 42.0422 58.6563 45.158C57.5534 48.2485 56.5257 51.2503 55.5731 54.1635C54.6206 57.0766 53.831 59.7998 53.2043 62.3329C52.5776 64.8408 52.2643 66.9813 52.2643 68.7545C52.2643 70.6797 52.703 72.1743 53.5803 73.2382C54.4577 74.3022 55.9115 74.8341 57.9419 74.8341C59.5964 74.8341 61.1881 74.4415 62.7172 73.6562C64.2713 72.8709 65.8004 71.7057 67.3044 70.1604C68.8335 68.5899 70.3751 66.6393 71.9292 64.3088C73.5084 61.9783 75.1628 59.2678 76.8924 56.1773L78.8477 52.6815L79.8629 53.4035L77.9077 56.8993C76.0527 60.2177 74.298 63.1182 72.6436 65.6007C70.9892 68.0579 69.3348 70.1098 67.6804 71.7563C66.026 73.4029 64.334 74.6315 62.6044 75.4421C60.8998 76.278 59.0699 76.696 57.1147 76.696C55.5606 76.696 54.1945 76.4554 53.0163 75.9741C51.8382 75.4928 50.848 74.8341 50.0459 73.9982C49.2438 73.1622 48.6296 72.187 48.2035 71.0724C47.8024 69.9324 47.6019 68.7165 47.6019 67.4246C47.6019 66.31 47.7397 64.9928 48.0155 63.4729C48.3163 61.953 48.7048 60.3064 49.1811 58.5332C49.6824 56.7346 50.2464 54.8474 50.8731 52.8715C51.5248 50.8703 52.2016 48.8311 52.9035 46.7539H37.0738C36.1463 48.7045 35.1938 50.6297 34.2162 52.5296C33.2637 54.4294 32.2986 56.266 31.321 58.0392C30.3684 59.8124 29.4034 61.497 28.4258 63.0929C27.4732 64.6635 26.5332 66.0947 25.6058 67.3866C24.3775 69.1092 23.1617 70.5784 21.9585 71.7943C20.7804 72.9849 19.5772 73.9729 18.3489 74.7581C17.1206 75.5434 15.8673 76.1134 14.5889 76.468C13.3105 76.8227 11.9819 77 10.6033 77C7.26938 77 4.66243 76.0247 2.78242 74.0742C0.927472 72.0983 0 69.2485 0 65.5247C0 63.5235 0.263202 61.649 0.789605 59.9011C1.31601 58.1279 2.04295 56.5826 2.97042 55.2654C3.89789 53.9481 4.9883 52.9095 6.24164 52.1496C7.49498 51.3896 8.84859 51.0097 10.3025 51.0097C11.0294 51.0097 11.6185 51.1363 12.0697 51.3896C12.5459 51.6429 12.7841 52.1242 12.7841 52.8335ZM48.0531 23.7274C47.3763 25.0193 46.6368 26.4759 45.8347 28.0971C45.0576 29.7183 44.2429 31.4409 43.3907 33.2648C42.5384 35.0887 41.6485 36.9885 40.721 38.9644C39.8186 40.915 38.8912 42.8908 37.9386 44.892H53.5427C54.3699 42.4602 55.1721 40.041 55.9491 37.6345C56.7513 35.228 57.4657 32.9228 58.0923 30.7189C58.7441 28.5151 59.2579 26.4759 59.6339 24.6013C60.035 22.7268 60.2356 21.1055 60.2356 19.7376C60.2356 18.851 60.1478 18.1291 59.9724 17.5718C59.7969 17.0145 59.5462 16.5838 59.2203 16.2799C58.9195 15.9505 58.5435 15.7352 58.0923 15.6339C57.6662 15.5072 57.1899 15.4439 56.6635 15.4439C55.8363 15.4439 55.0718 15.5706 54.3699 15.8239C53.6931 16.0772 53.0288 16.5205 52.3771 17.1538C51.7254 17.7871 51.0486 18.6357 50.3467 19.6996C49.6448 20.7636 48.8803 22.1062 48.0531 23.7274Z" fill="#202020"/>
<path d="M78.7349 53.0235C79.6373 50.2877 80.7151 47.8052 81.9685 45.576C83.2218 43.3215 84.5754 41.3203 86.0293 39.5724C87.5082 37.8245 89.0499 36.3173 90.6541 35.0507C92.2835 33.7841 93.9003 32.7455 95.5046 31.9349C97.1339 31.0989 98.7256 30.4783 100.28 30.073C101.859 29.6677 103.338 29.465 104.717 29.465C106.145 29.465 107.336 29.693 108.289 30.149C109.241 30.5796 110.006 31.2002 110.582 32.0109C111.184 32.7961 111.61 33.7587 111.861 34.8987C112.111 36.0133 112.237 37.2545 112.237 38.6224L115.282 30.187H120.847L111.259 56.7853C110.908 57.7732 110.557 58.7865 110.206 59.8251C109.855 60.8384 109.542 61.8516 109.266 62.8649C109.016 63.8528 108.803 64.8154 108.627 65.7527C108.477 66.6647 108.401 67.5133 108.401 68.2986C108.401 70.0464 108.853 71.4397 109.755 72.4783C110.683 73.5169 112.111 74.0362 114.041 74.0362C115.721 74.0362 117.35 73.6815 118.929 72.9723C120.509 72.2376 122.063 71.1357 123.592 69.6665C125.146 68.1719 126.7 66.31 128.254 64.0808C129.809 61.8263 131.413 59.1918 133.067 56.1773L134.985 52.6815L136 53.4035L134.045 56.8993C132.215 60.1924 130.46 63.0422 128.781 65.4487C127.126 67.8299 125.472 69.8058 123.818 71.3764C122.163 72.9216 120.471 74.0742 118.742 74.8341C117.012 75.5688 115.169 75.9361 113.214 75.9361C111.685 75.9361 110.332 75.6954 109.153 75.2141C108 74.7581 107.023 74.0995 106.221 73.2382C105.444 72.377 104.854 71.3384 104.453 70.1224C104.052 68.9065 103.852 67.5513 103.852 66.0567C103.852 65.0688 103.94 64.0048 104.115 62.8649C104.29 61.6996 104.554 60.4964 104.905 59.2551C101.621 64.8281 98.3747 69.0078 95.1662 71.7943C91.9576 74.5555 88.6989 75.9361 85.3901 75.9361C83.836 75.9361 82.5074 75.6574 81.4045 75.1001C80.3266 74.5175 79.4367 73.7195 78.7349 72.7063C78.033 71.6677 77.5191 70.4644 77.1933 69.0965C76.8674 67.7033 76.7045 66.1834 76.7045 64.5368C76.7045 62.7636 76.8799 60.9017 77.2309 58.9511C77.5818 56.9753 78.0831 54.9994 78.7349 53.0235ZM86.7437 74.0362C88.0973 74.0362 89.476 73.6815 90.8797 72.9723C92.2835 72.2376 93.6747 71.2497 95.0534 70.0084C96.4571 68.7419 97.8107 67.2726 99.1142 65.6007C100.418 63.9035 101.646 62.1049 102.799 60.2051C103.977 58.2799 105.055 56.304 106.033 54.2774C107.01 52.2509 107.85 50.2624 108.552 48.3118C109.279 46.3359 109.83 44.4614 110.206 42.6882C110.607 40.8896 110.808 39.2811 110.808 37.8625C110.808 36.5706 110.645 35.494 110.319 34.6327C110.018 33.7461 109.605 33.0368 109.078 32.5048C108.577 31.9475 107.988 31.5549 107.311 31.3269C106.659 31.0989 105.982 30.9849 105.281 30.9849C103.877 30.9849 102.31 31.4282 100.581 32.3148C98.876 33.1761 97.1339 34.506 95.3542 36.3046C93.5744 38.0778 91.8197 40.3323 90.0901 43.0682C88.3856 45.7787 86.8189 48.9704 85.3901 52.6435C84.212 55.7087 83.3221 58.5458 82.7205 61.155C82.144 63.7642 81.8557 65.9427 81.8557 67.6906C81.8557 69.6665 82.2442 71.2244 83.0213 72.3643C83.8234 73.4789 85.0642 74.0362 86.7437 74.0362Z" fill="#202020"/>
</svg>
