<svg width="136" height="96" viewBox="0 0 136 96" fill="none" xmlns="http://www.w3.org/2000/svg">
<path d="M56.9333 56.8243H35.8801L32.1908 65.5C31.2818 67.6351 30.8274 69.2297 30.8274 70.2838C30.8274 71.1216 31.215 71.8649 31.9903 72.5135C32.7923 73.1351 34.5033 73.5405 37.1233 73.7297V75.2297H20V73.7297C22.2724 73.3243 23.7428 72.7973 24.4111 72.1487C25.7746 70.8514 27.2851 68.2162 28.9426 64.2432L48.0709 19H49.4745L68.4023 64.7297C69.9261 68.4054 71.3029 70.7973 72.5327 71.9054C73.7892 72.9865 75.5269 73.5946 77.7459 73.7297V75.2297H56.2917V73.7297C58.4572 73.6216 59.9142 73.2568 60.6627 72.6351C61.438 72.0135 61.8257 71.2568 61.8257 70.3649C61.8257 69.1757 61.291 67.2973 60.2216 64.7297L56.9333 56.8243ZM55.8105 53.8243L46.5872 31.6081L37.1233 53.8243H55.8105Z" fill="#202020"/>
<path d="M102.087 69.8784C98.3178 72.8243 95.9519 74.527 94.9894 74.9865C93.5458 75.6622 92.0086 76 90.3778 76C87.838 76 85.7394 75.1216 84.0819 73.3649C82.4511 71.6081 81.6357 69.2973 81.6357 66.4324C81.6357 64.6216 82.0367 63.0541 82.8387 61.7297C83.9348 59.8919 85.833 58.1622 88.5331 56.5405C91.26 54.9189 95.7781 52.9459 102.087 50.6216V49.1622C102.087 45.4595 101.499 42.9189 100.323 41.5405C99.1733 40.1622 97.4891 39.473 95.2701 39.473C93.5859 39.473 92.2492 39.9324 91.26 40.8514C90.2441 41.7703 89.7362 42.8243 89.7362 44.0135L89.8164 46.3649C89.8164 47.6081 89.4956 48.5676 88.8539 49.2432C88.2391 49.9189 87.4237 50.2568 86.4078 50.2568C85.4186 50.2568 84.6032 49.9054 83.9616 49.2027C83.3467 48.5 83.0393 47.5405 83.0393 46.3243C83.0393 44 84.2156 41.8649 86.5682 39.9189C88.9208 37.973 92.2225 37 96.4732 37C99.7348 37 102.408 37.5541 104.493 38.6622C106.071 39.5 107.234 40.8108 107.982 42.5946C108.463 43.7568 108.704 46.1351 108.704 49.7297V62.3378C108.704 65.8784 108.771 68.0541 108.905 68.8649C109.038 69.6487 109.252 70.1757 109.546 70.4459C109.867 70.7162 110.228 70.8514 110.629 70.8514C111.057 70.8514 111.431 70.7568 111.752 70.5676C112.313 70.2162 113.396 69.2297 115 67.6081V69.8784C112.006 73.9324 109.145 75.9595 106.418 75.9595C105.108 75.9595 104.066 75.5 103.29 74.5811C102.515 73.6622 102.114 72.0946 102.087 69.8784ZM102.087 67.2432V53.0946C98.0505 54.7162 95.4439 55.8649 94.2676 56.5405C92.1556 57.7297 90.6451 58.973 89.7362 60.2703C88.8272 61.5676 88.3727 62.9865 88.3727 64.527C88.3727 66.473 88.9475 68.0946 90.0971 69.3919C91.2467 70.6622 92.57 71.2973 94.0671 71.2973C96.0989 71.2973 98.7723 69.9459 102.087 67.2432Z" fill="#202020"/>
</svg>
