<?xml version="1.0" encoding="UTF-8"?><!DOCTYPE svg PUBLIC "-//W3C//DTD SVG 1.1//EN" "http://www.w3.org/Graphics/SVG/1.1/DTD/svg11.dtd"><svg xmlns="http://www.w3.org/2000/svg" xmlns:xlink="http://www.w3.org/1999/xlink"><defs/><symbol id="account" viewBox="0 0 20 20"><path d="M9.99162 11.6535C13.2083 11.6535 15.825 9.0379 15.825 5.82257C15.825 2.60725 13.2083 -0.0083313 9.99162 -0.0083313C6.77495 -0.0083313 4.15828 2.60725 4.15828 5.82257C4.15828 9.0379 6.77495 11.6535 9.99162 11.6535ZM9.99162 1.65764C12.2916 1.65764 14.1583 3.52353 14.1583 5.82257C14.1583 8.12162 12.2916 9.98751 9.99162 9.98751C7.69162 9.98751 5.82495 8.12162 5.82495 5.82257C5.82495 3.52353 7.69162 1.65764 9.99162 1.65764Z" fill="currentColor"/><path d="M14.9916 12.4865H4.99162C2.69162 12.4865 0.824951 14.3524 0.824951 16.6514V19.9917H2.49162V16.6514C2.49162 15.277 3.61662 14.1524 4.99162 14.1524H14.9916C16.3666 14.1524 17.4916 15.277 17.4916 16.6514V19.9917H19.1583V16.6514C19.1583 14.3524 17.2916 12.4865 14.9916 12.4865Z" fill="currentColor"/></symbol><symbol id="arrow-up" viewBox="0 0 24 24"><path d="M2 15.5L12 5L13.4286 6.5L3.42857 17L2 15.5Z" fill="#202020"/><path d="M20.5714 17L10.5714 6.5L12 5L22 15.5L20.5714 17Z" fill="#202020"/></symbol><symbol id="basket" viewBox="0 0 20 20"><path d="M6.66406 15C5.28968 15 4.16519 16.125 4.16519 17.5C4.16519 18.875 5.28968 20 6.66406 20C8.03843 20 9.16292 18.875 9.16292 17.5C9.16292 16.125 8.03843 15 6.66406 15ZM6.66406 18.3333C6.20593 18.3333 5.8311 17.9583 5.8311 17.5C5.8311 17.0417 6.20593 16.6667 6.66406 16.6667C7.12218 16.6667 7.49701 17.0417 7.49701 17.5C7.49701 17.9583 7.12218 18.3333 6.66406 18.3333Z" fill="currentColor"/><path d="M14.9936 15C13.6192 15 12.4947 16.125 12.4947 17.5C12.4947 18.875 13.6192 20 14.9936 20C16.368 20 17.4925 18.875 17.4925 17.5C17.4925 16.125 16.368 15 14.9936 15ZM14.9936 18.3333C14.5355 18.3333 14.1606 17.9583 14.1606 17.5C14.1606 17.0417 14.5355 16.6667 14.9936 16.6667C15.4517 16.6667 15.8266 17.0417 15.8266 17.5C15.8266 17.9583 15.4517 18.3333 14.9936 18.3333Z" fill="currentColor"/><path d="M4.06524 0H0.833374V1.66667H2.59924L4.26515 14.1667H17.4841V12.5H5.73115L5.62286 11.6667H17.5424L19.1667 3.33333H4.5067L4.06524 0ZM17.1426 5L16.1681 10H5.39797L4.7316 5H17.1426Z" fill="currentColor"/></symbol><symbol id="heart-fill" viewBox="0 0 20 20"><path d="M 11.076 2.849 L 9.992 3.947 L 8.899 2.841 C 7.915 1.867 6.606 1.33 5.213 1.33 C 3.82 1.33 2.51 1.867 1.526 2.841 C 0.542 3.815 0 5.112 0 6.482 C 0 7.854 0.542 9.151 1.526 10.117 L 10 18.672 L 18.474 10.117 C 19.458 9.142 20 7.845 20 6.475 C 20 5.104 19.458 3.808 18.474 2.833 C 16.439 0.826 13.128 0.826 11.084 2.833 L 11.076 2.849 Z" fill="#202020" style=""/></symbol><symbol id="heart" viewBox="0 0 20 20"><path d="M11.0759 3.20188L9.99166 4.31009L8.89908 3.19355C7.91493 2.21034 6.6055 1.66873 5.21268 1.66873C3.81985 1.66873 2.51043 2.21034 1.52627 3.19355C0.542118 4.17677 0 5.48495 0 6.86812C0 8.25129 0.542118 9.55946 1.52627 10.5343L10 19.1667L18.4737 10.5343C19.4579 9.55113 20 8.24295 20 6.85978C20 5.47661 19.4579 4.16844 18.4737 3.18523C16.4387 1.16047 13.1276 1.16047 11.0842 3.18523L11.0759 3.20188ZM17.2811 9.37615L9.99166 16.8003L2.70225 9.36782C2.03503 8.70124 1.65972 7.80968 1.65972 6.86812C1.65972 5.92657 2.02669 5.03501 2.70225 4.36842C3.36947 3.70183 4.26189 3.3352 5.21268 3.3352C6.16347 3.3352 7.05588 3.70182 7.71476 4.36008L9.99166 6.70146L12.2686 4.36842C13.653 2.99358 15.9049 2.98525 17.2894 4.36842C17.9566 5.03501 18.3319 5.92657 18.3319 6.86812C18.3319 7.80968 17.965 8.6929 17.2894 9.36782L17.2811 9.37615Z" fill="currentColor"/></symbol><symbol id="moon" viewBox="0 0 20 20"><path d="M18.3083 16.9917V15.8333L15.6719 15.8583C12.4533 15.8583 9.83355 13.2333 9.83355 10.0083C9.83355 6.78333 12.4533 4.15833 15.6719 4.15833H18.3083V2.58333C16.462 0.925 14.1 0 11.6216 0C6.1243 0 1.6416 4.48333 1.6416 10C1.6416 15.5167 6.11599 20 11.6216 20C14.1 20 16.462 19.075 18.3 17.4083V16.9917H18.3083ZM11.63 18.3333C7.04746 18.3333 3.31326 14.5917 3.31326 10C3.31326 5.40833 7.03914 1.66667 11.6216 1.66667C12.8941 1.66667 14.1333 1.95833 15.2644 2.50833C11.3139 2.71667 8.17021 6 8.17021 10.0083C8.17021 14.0167 11.289 17.275 15.2145 17.5083C14.1 18.0417 12.8775 18.325 11.6216 18.325L11.63 18.3333Z" fill="currentColor"/></symbol><symbol id="search" viewBox="0 0 20 20"><path d="M13.3306 0C9.65402 0 6.66111 2.99291 6.66111 6.66945C6.66111 8.21176 7.18633 9.62068 8.07003 10.7545L0 18.8245L1.17549 20L9.24552 11.93C10.3793 12.8053 11.7882 13.3389 13.3306 13.3389C17.0071 13.3389 20 10.346 20 6.66945C20 2.99291 17.0071 0 13.3306 0ZM13.3306 11.6715C10.5711 11.6715 8.32847 9.42893 8.32847 6.66945C8.32847 3.90996 10.5711 1.66736 13.3306 1.66736C16.09 1.66736 18.3326 3.90996 18.3326 6.66945C18.3326 9.42893 16.09 11.6715 13.3306 11.6715Z" fill="currentColor"/></symbol><symbol id="sun" viewBox="0 0 20 20"><path d="M10.8333 -4.7354e-07L9.16667 -4.00688e-07L9.16667 2.55C7.725 2.70833 6.4 3.28334 5.325 4.15L3.51667 2.34167L2.34167 3.51667L4.15 5.325C3.28333 6.4 2.71667 7.725 2.55 9.16667L-4.7354e-07 9.16667L-4.00688e-07 10.8333L2.55 10.8333C2.70833 12.275 3.28333 13.6 4.15 14.675L2.34167 16.4833L3.51667 17.6583L5.325 15.85C6.4 16.7167 7.725 17.2833 9.16667 17.45L9.16667 20L10.8333 20L10.8333 17.45C12.275 17.2917 13.6 16.7167 14.675 15.85L16.4833 17.6583L17.6583 16.4833L15.85 14.675C16.7167 13.6 17.2833 12.275 17.45 10.8333L20 10.8333L20 9.16667L17.45 9.16667C17.2917 7.725 16.7167 6.4 15.85 5.325L17.6583 3.51667L16.4833 2.34166L14.675 4.15C13.6 3.28334 12.275 2.71666 10.8333 2.55L10.8333 -4.7354e-07Z" fill="currentColor"/></symbol><symbol id="tg" viewBox="0 0 40 40"><path d="M26.9952 14.2842C26.746 16.9193 25.6662 23.3236 25.118 26.2755C24.8854 27.5264 24.4203 27.9433 23.9883 27.9934C23.0248 28.0767 22.2939 27.3596 21.3636 26.7425C19.9016 25.7752 19.071 25.1748 17.659 24.2408C16.0143 23.1568 17.0775 22.5564 18.0244 21.5891C18.2736 21.3389 22.5264 17.453 22.6095 17.1027C22.621 17.0497 22.6195 16.9946 22.605 16.9423C22.5905 16.89 22.5635 16.842 22.5264 16.8025C22.4268 16.7192 22.2939 16.7525 22.1776 16.7692C22.0281 16.8025 19.7023 18.3536 15.167 21.4223C14.5025 21.8726 13.9045 22.1061 13.3729 22.0894C12.7748 22.0727 11.6452 21.7558 10.798 21.4723C9.75136 21.1388 8.93735 20.9553 9.0038 20.3716C9.03702 20.0714 9.45234 19.7712 10.2331 19.4543C15.084 17.3362 18.3068 15.9353 19.9183 15.2682C24.5365 13.3336 25.4835 13 26.1147 13C26.2476 13 26.5633 13.0334 26.7626 13.2001C26.9288 13.3336 26.9786 13.517 26.9952 13.6504C26.9786 13.7505 27.0118 14.0507 26.9952 14.2842Z" fill="#F0F0F0"/></symbol><symbol id="view-cards" viewBox="0 0 24 24"><path d="M0 2C0 0.89543 0.895431 0 2 0H22C23.1046 0 24 0.895431 24 2V8C24 9.10457 23.1046 10 22 10H2C0.89543 10 0 9.10457 0 8V2Z" fill="#FF4B41"/><path d="M0 16C0 14.8954 0.895431 14 2 14H22C23.1046 14 24 14.8954 24 16V22C24 23.1046 23.1046 24 22 24H2C0.89543 24 0 23.1046 0 22V16Z" fill="#FF4B41"/></symbol><symbol id="view-list" viewBox="0 0 24 24"><path fill-rule="evenodd" clip-rule="evenodd" d="M22 2H2L2 4H22V2ZM22 11H2L2 13H22V11ZM22 20H2L2 22H22V20ZM0 2C0 0.89543 0.895431 0 2 0H22C23.1046 0 24 0.895431 24 2V4C24 5.10457 23.1046 6 22 6H2C0.89543 6 0 5.10457 0 4V2ZM0 11C0 9.89543 0.895431 9 2 9H22C23.1046 9 24 9.89543 24 11V13C24 14.1046 23.1046 15 22 15H2C0.89543 15 0 14.1046 0 13V11ZM2 18C0.895431 18 0 18.8954 0 20V22C0 23.1046 0.89543 24 2 24H22C23.1046 24 24 23.1046 24 22V20C24 18.8954 23.1046 18 22 18H2Z" fill="currentColor"/></symbol><symbol id="vk" viewBox="0 0 40 40"><path d="M20.9824 27C13.4659 27 9.17864 22.4955 9 15H12.7651C12.8888 20.5015 15.6645 22.8318 17.8631 23.3123V15H21.4086V19.7447C23.5797 19.5405 25.8605 17.3784 26.63 15H30.1754C29.5845 17.9309 27.111 20.0931 25.3521 20.982C27.111 21.7027 29.9282 23.5886 31 27H27.0973C26.2591 24.7177 24.1706 22.952 21.4086 22.7117V27H20.9824Z" fill="#F0F0F0"/></symbol></svg>